<svg width="108" height="715" viewBox="0 0 108 715" fill="none" xmlns="http://www.w3.org/2000/svg">
<g opacity="0.3">
<path d="M106.818 436.104C107.207 443.466 107.116 451.46 106.53 460.037C105.943 468.635 101.168 472.926 92.1995 472.926L6.17676 472.926L6.17676 460.877C6.17676 457.982 7.14774 455.416 9.10571 453.175C11.0477 450.95 13.3951 449.834 16.1213 449.834L29.2883 449.834L29.2883 436.104L33.3856 436.104C36.3093 436.104 38.7047 437.225 40.54 439.439C42.3966 441.681 43.3356 444.373 43.3356 447.477L43.3356 449.834L88.7797 449.834C92.1035 449.834 93.7573 447.615 93.7573 443.142L93.7573 436.104L106.818 436.104Z" fill="#E1E4E5"/>
<path d="M106.818 391.927C107.207 399.289 107.116 407.272 106.53 415.859C105.943 424.463 101.168 428.759 92.1995 428.759L6.17676 428.759L6.17676 416.7C6.17676 413.804 7.14774 411.233 9.10571 409.008C11.0477 406.766 13.3951 405.656 16.1213 405.656L29.2883 405.656L29.2883 391.921L33.3856 391.921C36.3093 391.921 38.7047 393.036 40.54 395.256C42.3966 397.487 43.3356 400.179 43.3356 403.305L43.3356 405.656L88.7797 405.656C92.1035 405.656 93.7573 403.42 93.7573 398.959L93.7573 391.921L106.818 391.927Z" fill="#E1E4E5"/>
<path d="M107.053 384.011L69.3074 384.011C61.6943 384.011 55.3082 382.726 50.1492 380.154C44.9741 377.594 40.8341 374.083 37.7078 369.617C34.7788 365.375 32.6341 360.408 31.2577 354.706C29.9025 349.014 29.209 343.151 29.209 337.135L29.209 335.454L29.209 333.778L42.4026 333.778C42.4026 333.778 42.3813 336.668 43.3096 342.574C44.3499 349.178 46.6867 352.838 50.5866 355.782C55.4576 359.458 61.1981 360.568 67.0507 360.568L107.053 360.568L107.053 384.011Z" fill="#E1E4E5"/>
<path d="M29.2207 325.147L29.2207 313.104C29.2207 309.978 30.1917 307.297 32.155 305.072C34.1076 302.841 36.4497 301.726 39.1653 301.726L107.054 301.726L107.054 325.147L29.2207 325.147Z" fill="#E1E4E5"/>
<path d="M14.5793 270.948L37.995 270.948C34.2871 268.493 31.2568 264.921 28.9147 260.24C26.9727 256.224 25.9911 251.312 25.9911 245.511C25.9911 235.011 29.795 226.413 37.4028 219.732C45.0106 213.024 54.8645 209.689 66.9591 209.689C79.0537 209.689 88.9076 213.024 96.5154 219.732C100.218 223.067 102.902 227.589 104.571 233.281C106.22 238.978 107.052 244.61 107.052 250.203C107.052 260.911 104.614 270.844 99.7325 279.992C94.8562 289.145 85.4932 293.727 71.6433 293.727L4.63477 293.727L4.63477 282.338C4.63476 279.217 5.61642 276.525 7.56372 274.294C9.51636 272.064 11.8585 270.948 14.5793 270.948ZM66.0895 232.786C59.0685 232.786 51.4661 234.445 47.5501 237.813C43.4581 241.165 41.4094 245.73 41.4094 251.527C41.4094 257.773 43.3621 262.581 47.2727 265.938C51.3647 269.284 59.0632 270.954 66.0895 270.954C74.2788 270.954 82.3721 269.388 86.0694 266.262C90.1667 262.916 92.2154 258.24 92.2154 252.202C92.2154 245.956 90.1667 241.165 86.0694 237.813C81.9774 234.445 73.8894 232.786 66.0895 232.786Z" fill="#E1E4E5"/>
<path d="M27.7641 123.703L73.4004 123.703C87.2555 123.703 96.3198 127.824 100.62 136.087C104.909 144.345 107.054 153.388 107.054 163.211C106.665 172.815 104.322 181.562 100.022 189.495C95.7437 197.418 86.8554 201.374 73.395 201.374L27.7588 201.374L27.7588 187.77C27.7588 187.77 28.4257 177.936 39.5173 177.936L79.6317 177.936C84.3106 177.936 87.725 176.37 89.8697 173.249C92.0144 170.118 93.0921 166.557 93.0921 162.536C93.0921 158.519 92.0144 154.882 89.8697 151.657C87.725 148.416 84.3106 146.8 79.6317 146.8L37.6927 146.8C34.9611 146.8 32.6244 145.74 30.6771 143.619C28.7191 141.51 27.7588 138.774 27.7588 135.417L27.7641 123.703Z" fill="#E1E4E5"/>
<path d="M106.818 77.8198C107.207 85.193 107.116 93.1759 106.53 101.758C105.943 110.351 101.168 114.647 92.1995 114.647L6.17676 114.647L6.17676 102.587C6.17676 99.6974 7.14774 97.1372 9.10571 94.8956C11.0477 92.6705 13.3951 91.5442 16.1213 91.5442L29.2883 91.5442L29.2883 77.8143L33.3856 77.8143C36.3093 77.8143 38.7047 78.9297 40.54 81.1658C42.3966 83.4074 43.3356 86.072 43.3356 89.2092L43.3356 91.5442L88.7797 91.5442C92.1035 91.5442 93.7573 89.319 93.7573 84.8413L93.7573 77.8088L106.818 77.8198Z" fill="#E1E4E5"/>
<path d="M85.6642 18.1963L85.6642 -0.00023912C92.2637 2.91165 96.0302 5.91149 100.314 12.8176C104.812 19.7512 107.053 28.4484 107.053 38.9312C107.053 51.6611 103.441 61.5945 96.217 68.7259C89.196 75.8848 79.1501 79.4449 66.0845 79.4449C53.5951 79.4449 43.8479 75.9836 36.8163 69.072C29.6032 61.9351 26.1461 51.9908 25.9914 39.2664C25.746 18.9436 36.6028 7.27949 49.4871 4.03795C71.8784 -1.58255 71.9744 25.7398 71.9744 25.7398L71.9317 55.6719C77.9764 55.4521 89.9269 52.749 92.2584 39.3433C94.6271 25.7453 85.6642 18.1963 85.6642 18.1963ZM58.7701 55.6773L58.7754 31.5746C58.9248 17.3228 43.2023 19.916 42.9729 38.6016C42.9089 43.5133 44.3387 47.535 47.0649 50.6557C49.7965 53.7874 53.7018 55.4576 58.7701 55.6773Z" fill="#E1E4E5"/>
<path d="M4.35742 531.49L4.35742 519.612L107.052 476.906L107.052 502.52L84.5969 511.75C84.5969 511.75 97.0757 520.941 97.0757 533.424C97.0757 545.918 84.5969 554.566 84.5969 554.566L107.052 563.664L107.052 589.294L23.3663 555.302C14.4034 551.895 4.35742 543.165 4.35742 531.49ZM30.8514 533.276L73.484 550.291C73.484 550.291 79.1979 543.632 79.1979 533.292C79.1979 522.941 73.5587 516.288 73.5587 516.288L30.8514 533.276Z" fill="#E1E4E5"/>
<path d="M89.6181 659.541C89.6181 678.71 69.2701 698.203 56.9141 708.257L107.058 702.268L107.058 620.653L57.4742 612.384C69.4088 623.115 89.6181 643.613 89.6181 659.541Z" fill="#E1E4E5"/>
<path d="M49.136 605.644L30.2712 626.956C30.2659 626.912 30.2499 626.874 30.2392 626.835L0.128039 660.24L-2.39364e-06 660.24L0.0640185 660.311L-2.38715e-06 660.388L0.128039 660.388L30.2392 693.798C30.2445 693.754 30.2605 693.715 30.2659 693.688L49.136 715L50.4325 712.406C53.9536 704.226 63.0766 689.43 63.0819 660.393C63.0819 631.368 53.9536 616.413 50.4325 608.238L49.136 605.644Z" fill="#E1E4E5"/>
</g>
</svg>
