<svg width="60" height="60" viewBox="0 0 60 60" fill="none" xmlns="http://www.w3.org/2000/svg">
<g clip-path="url(#clip0_279_7975)">
<circle cx="7.5" cy="7.5" r="7.5" transform="matrix(-1 0 0 1 37.5005 22.5)" stroke="#191919" stroke-width="2"/>
<path d="M41.2508 12.3437L41.7508 11.4777H41.7508L41.2508 12.3437ZM41.2508 47.6554L40.7508 46.7893H40.7508L41.2508 47.6554ZM18.7508 47.6554L18.2508 48.5214L18.7508 47.6554ZM18.7508 12.3438L19.2508 13.2098V13.2098L18.7508 12.3438ZM22.3081 7.53769L21.3339 7.31226L22.3081 7.53769ZM7.26668 24.2088L7.90257 23.437L7.26668 24.2088ZM13.2803 46.8505L13.0508 45.8772L13.2803 46.8505ZM23.8489 54.2375L23.6036 55.2069L23.8489 54.2375ZM22.3083 52.4621L21.334 52.6875L22.3083 52.4621ZM37.6933 52.4621L36.719 52.2367L37.6933 52.4621ZM36.1528 54.2374L36.3981 55.2068L36.1528 54.2374ZM48.9932 46.2575L48.2338 45.6068L48.9932 46.2575ZM46.721 46.8505L46.9506 45.8772L46.721 46.8505ZM53.6099 21.7572L52.6658 22.0868L53.6099 21.7572ZM52.7346 24.2088L52.0987 23.437L52.7346 24.2088ZM6.39136 38.2428L5.44723 38.5724L6.39136 38.2428ZM7.26668 35.7912L7.90257 36.563L7.26668 35.7912ZM46.7206 13.1487L46.4911 12.1754L46.7206 13.1487ZM48.9925 13.7417L49.7519 13.0911L48.9925 13.7417ZM11.0088 13.7417L10.2494 13.091L11.0088 13.7417ZM13.2808 13.1487L13.0513 14.122L13.2808 13.1487ZM52.7346 35.7912L53.3705 35.0194L52.7346 35.7912ZM53.6099 38.2428L54.554 38.5724L53.6099 38.2428ZM37.6935 7.53775L38.6677 7.31232L37.6935 7.53775ZM36.153 5.76269L35.9076 6.73213L36.153 5.76269ZM36.7192 7.76319C37.2313 9.97647 38.6264 11.9833 40.7508 13.2098L41.7508 11.4777C40.1262 10.5398 39.0601 9.00815 38.6677 7.31232L36.7192 7.76319ZM40.7508 13.2098C42.7025 14.3366 44.9177 14.6012 46.9501 14.1221L46.4911 12.1754C44.9349 12.5424 43.244 12.3398 41.7508 11.4777L40.7508 13.2098ZM54.554 21.4276C53.4766 18.3415 51.8344 15.5215 49.7519 13.0911L48.2332 14.3924C50.1565 16.637 51.672 19.2401 52.6658 22.0868L54.554 21.4276ZM51.0006 30C51.0006 27.9792 51.9216 26.1744 53.3705 24.9806L52.0987 23.437C50.2085 24.9944 49.0006 27.3566 49.0006 30H51.0006ZM53.3705 35.0194C51.9216 33.8256 51.0006 32.0208 51.0006 30H49.0006C49.0006 32.6434 50.2085 35.0056 52.0987 36.563L53.3705 35.0194ZM49.7526 46.9081C51.8348 44.4779 53.4768 41.6581 54.554 38.5724L52.6658 37.9132C51.6721 40.7596 50.1568 43.3624 48.2338 45.6068L49.7526 46.9081ZM41.7508 48.5214C43.2442 47.6592 44.9352 47.4567 46.4915 47.8238L46.9506 45.8772C44.9181 45.3978 42.7027 45.6624 40.7508 46.7893L41.7508 48.5214ZM38.6676 52.6874C39.0599 50.9913 40.126 49.4595 41.7508 48.5214L40.7508 46.7893C38.6262 48.016 37.231 50.0231 36.719 52.2367L38.6676 52.6874ZM30.0006 56C32.2069 56 34.3504 55.725 36.3981 55.2068L35.9074 53.2679C34.0189 53.7458 32.0401 54 30.0006 54V56ZM23.6036 55.2069C25.6511 55.725 27.7945 56 30.0006 56V54C27.9612 54 25.9826 53.7459 24.0942 53.268L23.6036 55.2069ZM18.2508 48.5214C19.8756 49.4595 20.9417 50.9914 21.334 52.6875L23.2826 52.2368C22.7706 50.0232 21.3754 48.016 19.2508 46.7893L18.2508 48.5214ZM13.5099 47.8238C15.0663 47.4567 16.7574 47.6592 18.2508 48.5214L19.2508 46.7893C17.2988 45.6624 15.0833 45.3978 13.0508 45.8772L13.5099 47.8238ZM5.44723 38.5724C6.52449 41.6582 8.16652 44.478 10.2487 46.9082L11.7675 45.6069C9.84446 43.3625 8.32918 40.7596 7.33548 37.9132L5.44723 38.5724ZM9.00062 30C9.00062 32.0208 8.07964 33.8256 6.63079 35.0194L7.90257 36.563C9.79276 35.0056 11.0006 32.6434 11.0006 30H9.00062ZM6.63078 24.9806C8.07964 26.1744 9.00062 27.9792 9.00062 30H11.0006C11.0006 27.3566 9.79276 24.9944 7.90257 23.437L6.63078 24.9806ZM10.2494 13.091C8.16689 15.5214 6.52461 18.3415 5.44723 21.4276L7.33548 22.0868C8.32929 19.2401 9.8448 16.637 11.7681 14.3923L10.2494 13.091ZM18.2508 11.4777C16.7575 12.3399 15.0666 12.5424 13.5103 12.1754L13.0513 14.122C15.0837 14.6013 17.299 14.3367 19.2508 13.2098L18.2508 11.4777ZM21.3339 7.31226C20.9415 9.00811 19.8754 10.5398 18.2508 11.4777L19.2508 13.2098C21.3752 11.9833 22.7703 9.97643 23.2824 7.76312L21.3339 7.31226ZM30.0006 4C27.7944 4 25.651 4.27502 23.6034 4.79314L24.094 6.73203C25.9825 6.25416 27.9612 6 30.0006 6V4ZM36.3983 4.79325C34.3506 4.27505 32.207 4 30.0006 4V6C32.0402 6 34.019 6.25419 35.9076 6.73213L36.3983 4.79325ZM23.2824 7.76312C23.4209 7.1644 23.7615 6.81617 24.094 6.73203L23.6034 4.79314C22.3001 5.12293 21.5757 6.26706 21.3339 7.31226L23.2824 7.76312ZM7.90257 23.437C7.35842 22.9887 7.20998 22.4463 7.33548 22.0868L5.44723 21.4276C4.94641 22.8622 5.70837 24.2206 6.63078 24.9806L7.90257 23.437ZM13.0508 45.8772C12.4538 46.0181 11.9909 45.8676 11.7675 45.6069L10.2487 46.9082C11.122 47.9274 12.4664 48.07 13.5099 47.8238L13.0508 45.8772ZM24.0942 53.268C23.7616 53.1839 23.4211 52.8356 23.2826 52.2368L21.334 52.6875C21.5758 53.7328 22.3001 54.8771 23.6036 55.2069L24.0942 53.268ZM36.719 52.2367C36.5805 52.8355 36.24 53.1838 35.9074 53.2679L36.3981 55.2068C37.7015 54.877 38.4258 53.7327 38.6676 52.6874L36.719 52.2367ZM48.2338 45.6068C48.0104 45.8675 47.5475 46.018 46.9506 45.8772L46.4915 47.8238C47.535 48.0699 48.8793 47.9273 49.7526 46.9081L48.2338 45.6068ZM52.6658 22.0868C52.7913 22.4463 52.6428 22.9887 52.0987 23.437L53.3705 24.9806C54.2929 24.2206 55.0548 22.8622 54.554 21.4276L52.6658 22.0868ZM7.33548 37.9132C7.20998 37.5537 7.35842 37.0113 7.90257 36.563L6.63079 35.0194C5.70837 35.7794 4.94642 37.1378 5.44723 38.5724L7.33548 37.9132ZM46.9501 14.1221C47.5469 13.9813 48.0098 14.1318 48.2332 14.3924L49.7519 13.0911C48.8786 12.072 47.5345 11.9294 46.4911 12.1754L46.9501 14.1221ZM11.7681 14.3923C11.9915 14.1317 12.4544 13.9812 13.0513 14.122L13.5103 12.1754C12.4668 11.9293 11.1227 12.0719 10.2494 13.091L11.7681 14.3923ZM52.0987 36.563C52.6428 37.0113 52.7913 37.5537 52.6658 37.9132L54.554 38.5724C55.0548 37.1378 54.2929 35.7794 53.3705 35.0194L52.0987 36.563ZM38.6677 7.31232C38.4259 6.26714 37.7015 5.12304 36.3983 4.79325L35.9076 6.73213C36.2401 6.81627 36.5807 7.16448 36.7192 7.76319L38.6677 7.31232Z" fill="#191919"/>
</g>
<defs>
<clipPath id="clip0_279_7975">
<rect width="60" height="60" fill="white"/>
</clipPath>
</defs>
</svg>
