<svg width="60" height="60" viewBox="0 0 60 60" fill="none" xmlns="http://www.w3.org/2000/svg">
<g clip-path="url(#clip0_279_7973)">
<path d="M27.4296 6.77116C28.5956 4.8337 31.4044 4.8337 32.5704 6.77116L38.3965 16.4522C38.8154 17.1482 39.4987 17.6446 40.2901 17.8279L51.2976 20.3773C53.5006 20.8875 54.3686 23.5589 52.8862 25.2665L45.4794 33.7991C44.9469 34.4125 44.6859 35.2157 44.7562 36.0251L45.7331 47.2817C45.9286 49.5344 43.6562 51.1855 41.574 50.3034L31.1703 45.8958C30.4223 45.5789 29.5777 45.5789 28.8297 45.8958L18.4259 50.3034C16.3438 51.1855 14.0714 49.5344 14.2669 47.2817L15.2438 36.0251C15.3141 35.2157 15.0531 34.4125 14.5206 33.7991L7.11376 25.2665C5.63143 23.5589 6.49943 20.8875 8.70237 20.3773L19.7099 17.8279C20.5013 17.6446 21.1846 17.1482 21.6035 16.4522L27.4296 6.77116Z" stroke="#191919" stroke-width="2"/>
</g>
<defs>
<clipPath id="clip0_279_7973">
<rect width="60" height="60" fill="white"/>
</clipPath>
</defs>
</svg>
