<svg width="233" height="36" viewBox="0 0 233 36" fill="none" xmlns="http://www.w3.org/2000/svg">
<path d="M90.8865 35.7161C88.4873 35.8443 85.8823 35.8145 83.0875 35.6214C80.2855 35.4283 78.8872 33.8573 78.8872 30.9065V2.60352H82.8136C83.7571 2.60352 84.5932 2.92299 85.3237 3.56719C86.0488 4.20614 86.4123 4.97848 86.4123 5.87546V10.2076H90.8865V11.5557C90.8865 12.5176 90.5212 13.3058 89.7997 13.9096C89.0692 14.5205 88.1919 14.8294 87.1804 14.8294H86.4123V29.7814C86.4123 30.8749 87.1356 31.4191 88.593 31.4191H90.8865V35.7161Z" fill="#3E3E3E"/>
<path d="M105.282 35.7161C102.883 35.8443 100.282 35.8145 97.4832 35.6214C94.6794 35.4283 93.2793 33.8573 93.2793 30.9065V2.60352H97.2092C98.1528 2.60352 98.9907 2.92299 99.7158 3.56719C100.446 4.20614 100.808 4.97848 100.808 5.87546V10.2076H105.284V11.5557C105.284 12.5176 104.921 13.3058 104.197 13.9096C103.47 14.5205 102.593 14.8294 101.574 14.8294H100.808V29.7814C100.808 30.8749 101.537 31.4191 102.99 31.4191H105.284L105.282 35.7161Z" fill="#3E3E3E"/>
<path d="M107.86 35.793V23.374C107.86 20.8691 108.279 18.768 109.117 17.0706C109.951 15.3679 111.095 14.0058 112.551 12.9772C113.933 12.0135 115.551 11.3078 117.41 10.855C119.265 10.4091 121.175 10.1809 123.136 10.1809H123.683H124.23V14.5219C124.23 14.5219 123.288 14.5148 121.363 14.8203C119.211 15.1625 118.019 15.9314 117.059 17.2145C115.861 18.8172 115.5 20.7059 115.5 22.6315V35.793H107.86Z" fill="#3E3E3E"/>
<path d="M127.043 10.1836H130.967C131.986 10.1836 132.86 10.5031 133.585 11.149C134.312 11.7915 134.675 12.5621 134.675 13.4555V35.7922H127.043V10.1836Z" fill="#3E3E3E"/>
<path d="M144.705 5.3674V13.0716C145.505 11.8516 146.669 10.8546 148.194 10.084C149.503 9.44505 151.104 9.12207 152.995 9.12207C156.416 9.12207 159.218 10.3736 161.395 12.8767C163.581 15.3798 164.668 18.6219 164.668 22.6013C164.668 26.5806 163.581 29.8227 161.395 32.3258C160.308 33.544 158.835 34.427 156.98 34.9764C155.123 35.5188 153.288 35.7926 151.466 35.7926C147.976 35.7926 144.739 34.9904 141.758 33.3843C138.775 31.7799 137.282 28.6993 137.282 24.1425V2.09546H140.993C142.01 2.09546 142.888 2.41844 143.615 3.05914C144.342 3.70159 144.705 4.47218 144.705 5.3674ZM157.141 22.3152C157.141 20.0051 156.6 17.5038 155.503 16.2154C154.411 14.869 152.923 14.195 151.034 14.195C148.998 14.195 147.432 14.8374 146.338 16.1241C145.247 17.4704 144.703 20.0034 144.703 22.3152C144.703 25.0096 145.213 27.6724 146.232 28.8889C147.323 30.237 148.846 30.911 150.814 30.911C152.85 30.911 154.411 30.237 155.503 28.8889C156.6 27.5425 157.141 24.8815 157.141 22.3152Z" fill="#3E3E3E"/>
<path d="M192.688 9.70512V24.7203C192.688 29.2789 191.345 32.2612 188.653 33.676C185.962 35.0873 183.015 35.7929 179.813 35.7929C176.684 35.6648 173.833 34.8942 171.248 33.4794C168.666 32.0716 167.377 29.1472 167.377 24.7185V9.70337H171.81C171.81 9.70337 175.015 9.92279 175.015 13.5721V26.7705C175.015 28.3099 175.525 29.4333 176.542 30.139C177.563 30.8446 178.723 31.1992 180.034 31.1992C181.342 31.1992 182.528 30.8446 183.579 30.139C184.635 29.4333 185.161 28.3099 185.161 26.7705V12.9718C185.161 12.0731 185.507 11.3042 186.198 10.6635C186.885 10.0193 187.777 9.70337 188.871 9.70337L192.688 9.70512Z" fill="#3E3E3E"/>
<path d="M207.642 35.7147C205.239 35.8428 202.638 35.813 199.841 35.6199C197.041 35.4268 195.641 33.8558 195.641 30.9051V2.60205H199.571C200.513 2.60205 201.347 2.92152 202.077 3.56573C202.802 4.20467 203.17 4.97702 203.17 5.87399V10.2062H207.644V11.5543C207.644 12.5162 207.28 13.3043 206.552 13.9082C205.821 14.519 204.953 14.828 203.93 14.828H203.17V29.7799C203.17 30.8735 203.895 31.4176 205.354 31.4176H207.646L207.642 35.7147Z" fill="#3E3E3E"/>
<path d="M227.07 28.7554H233C232.051 30.9267 231.074 32.166 228.823 33.5755C226.564 35.0553 223.729 35.7925 220.313 35.7925C216.165 35.7925 212.928 34.6041 210.604 32.2274C208.271 29.9174 207.111 26.6121 207.111 22.3133C207.111 18.2041 208.239 14.9971 210.491 12.6835C212.817 10.3103 216.057 9.17285 220.204 9.12195C226.827 9.0412 230.628 12.6133 231.684 16.8524C233.516 24.2196 224.612 24.2512 224.612 24.2512L214.858 24.2371C214.93 26.2259 215.81 30.1579 220.179 30.925C224.61 31.7043 227.07 28.7554 227.07 28.7554ZM214.856 19.9067L222.711 19.9085C227.355 19.9576 226.51 14.7847 220.421 14.7092C218.82 14.6881 217.509 15.1585 216.493 16.0555C215.472 16.9543 214.928 18.2392 214.856 19.9067Z" fill="#3E3E3E"/>
<path d="M59.8012 2.00562H63.672L77.5888 35.7941H69.242L66.2341 28.4059C66.2341 28.4059 63.2388 32.5116 59.171 32.5116C55.0996 32.5116 52.2815 28.4059 52.2815 28.4059L49.3166 35.7941H40.9644L52.0416 8.25987C53.1516 5.31091 55.9966 2.00562 59.8012 2.00562ZM59.2193 10.7226L53.6744 24.7495C53.6744 24.7495 55.8444 26.6295 59.2139 26.6295C62.5871 26.6295 64.7552 24.7741 64.7552 24.7741L59.2193 10.7226Z" fill="#3E3E3E"/>
<path d="M18.0737 30.0551C11.827 30.0551 5.47468 23.3603 2.19824 19.2949L4.14978 35.7933H30.7462L33.4408 19.4792C29.9441 23.4059 23.2641 30.0551 18.0737 30.0551Z" fill="#3E3E3E"/>
<path d="M35.6362 16.7367L28.6912 10.5298C28.7055 10.5281 28.7181 10.5228 28.7306 10.5193L17.8449 0.612196V0.570068L17.8217 0.591132L17.7966 0.570068V0.612196L6.90916 10.5193C6.92349 10.5211 6.93602 10.5263 6.94497 10.5281L0 16.7367L0.84507 17.1632C3.51098 18.3218 8.33253 21.3234 17.7948 21.3251C27.2535 21.3251 32.127 18.3218 34.7911 17.1632L35.6362 16.7367Z" fill="#3E3E3E"/>
</svg>
