<svg width="171" height="26" viewBox="0 0 171 26" fill="none" xmlns="http://www.w3.org/2000/svg">
<path d="M66.7008 25.5469C64.9401 25.6401 63.0283 25.6184 60.9771 25.478C58.9208 25.3377 57.8945 24.1957 57.8945 22.0508V1.47754H60.7761C61.4686 1.47754 62.0822 1.70976 62.6183 2.17803C63.1505 2.64247 63.4172 3.20389 63.4172 3.8559V7.00492H66.7008V7.98484C66.7008 8.68406 66.4328 9.25696 65.9033 9.69588C65.3671 10.1399 64.7233 10.3645 63.9809 10.3645H63.4172V21.233C63.4172 22.0279 63.948 22.4234 65.0176 22.4234H66.7008V25.5469Z" fill="white"/>
<path d="M77.266 25.5469C75.5052 25.6401 73.596 25.6184 71.5423 25.478C69.4846 25.3377 68.457 24.1957 68.457 22.0508V1.47754H71.3412C72.0337 1.47754 72.6486 1.70976 73.1808 2.17803C73.7169 2.64247 73.9823 3.20389 73.9823 3.8559V7.00492H77.2673V7.98484C77.2673 8.68406 77.0006 9.25696 76.4697 9.69588C75.9362 10.1399 75.2924 10.3645 74.5447 10.3645H73.9823V21.233C73.9823 22.0279 74.5171 22.4234 75.5841 22.4234H77.2673L77.266 25.5469Z" fill="white"/>
<path d="M79.1592 25.6026V16.5753C79.1592 14.7546 79.4667 13.2273 80.0816 11.9934C80.6939 10.7558 81.5335 9.76563 82.6018 9.01793C83.6162 8.31744 84.8041 7.80451 86.168 7.47531C87.5293 7.15122 88.9313 6.98535 90.3701 6.98535H90.7722H91.1729V10.1408C91.1729 10.1408 90.4818 10.1357 89.0692 10.3577C87.4898 10.6065 86.6147 11.1653 85.9104 12.0981C85.0314 13.263 84.7659 14.6359 84.7659 16.0356V25.6026H79.1592Z" fill="white"/>
<path d="M93.2373 6.98828H96.1176C96.8652 6.98828 97.5064 7.2205 98.0386 7.69005C98.5721 8.15704 98.8388 8.71718 98.8388 9.36664V25.603H93.2373V6.98828Z" fill="white"/>
<path d="M106.2 3.48676V9.08687C106.787 8.20009 107.641 7.47535 108.761 6.91521C109.721 6.45077 110.896 6.216 112.283 6.216C114.794 6.216 116.851 7.12574 118.449 8.94524C120.053 10.7647 120.851 13.1214 120.851 16.014C120.851 18.9065 120.053 21.2632 118.449 23.0827C117.651 23.9682 116.57 24.61 115.208 25.0094C113.846 25.4036 112.499 25.6027 111.161 25.6027C108.6 25.6027 106.225 25.0196 104.037 23.8521C101.848 22.6859 100.752 20.4466 100.752 17.1342V1.1084H103.476C104.222 1.1084 104.866 1.34317 105.4 1.80889C105.933 2.27589 106.2 2.83602 106.2 3.48676ZM115.327 15.806C115.327 14.1268 114.93 12.3086 114.124 11.3721C113.323 10.3934 112.231 9.90347 110.845 9.90347C109.351 9.90347 108.201 10.3705 107.398 11.3057C106.598 12.2844 106.198 14.1256 106.198 15.806C106.198 17.7645 106.573 19.7002 107.321 20.5844C108.121 21.5643 109.239 22.0543 110.683 22.0543C112.177 22.0543 113.323 21.5643 114.124 20.5844C114.93 19.6057 115.327 17.6714 115.327 15.806Z" fill="white"/>
<path d="M141.415 6.63995V17.5544C141.415 20.868 140.429 23.0358 138.453 24.0642C136.478 25.0901 134.315 25.603 131.966 25.603C129.669 25.5099 127.577 24.9497 125.68 23.9213C123.785 22.898 122.839 20.7723 122.839 17.5531V6.63867H126.092C126.092 6.63867 128.444 6.79816 128.444 9.45085V19.0447C128.444 20.1637 128.819 20.9803 129.565 21.4932C130.314 22.0061 131.166 22.2639 132.127 22.2639C133.088 22.2639 133.958 22.0061 134.729 21.4932C135.504 20.9803 135.891 20.1637 135.891 19.0447V9.01448C135.891 8.36119 136.144 7.80233 136.651 7.33661C137.156 6.86834 137.81 6.63867 138.613 6.63867L141.415 6.63995Z" fill="white"/>
<path d="M152.389 25.5469C150.625 25.6401 148.716 25.6184 146.664 25.478C144.609 25.3377 143.581 24.1957 143.581 22.0508V1.47754H146.465C147.156 1.47754 147.769 1.70976 148.305 2.17803C148.837 2.64247 149.106 3.20389 149.106 3.8559V7.00492H152.39V7.98484C152.39 8.68406 152.123 9.25696 151.588 9.69588C151.052 10.1399 150.415 10.3645 149.665 10.3645H149.106V21.233C149.106 22.0279 149.639 22.4234 150.709 22.4234H152.391L152.389 25.5469Z" fill="white"/>
<path d="M166.648 20.4882H171C170.304 22.0666 169.586 22.9674 167.935 23.992C166.276 25.0676 164.196 25.6035 161.689 25.6035C158.645 25.6035 156.269 24.7397 154.564 23.012C152.851 21.3329 152 18.9303 152 15.8055C152 12.8185 152.828 10.4874 154.481 8.80568C156.188 7.08061 158.566 6.2538 161.609 6.2168C166.47 6.1581 169.259 8.75465 170.034 11.836C171.379 17.1912 164.844 17.2141 164.844 17.2141L157.686 17.2039C157.738 18.6496 158.385 21.5077 161.591 22.0653C164.843 22.6318 166.648 20.4882 166.648 20.4882ZM157.684 14.0562L163.449 14.0575C166.857 14.0932 166.237 10.333 161.768 10.2781C160.593 10.2628 159.632 10.6048 158.885 11.2568C158.136 11.9101 157.737 12.844 157.684 14.0562Z" fill="white"/>
<path d="M43.8879 1.04199H46.7287L56.9423 25.6026H50.8165L48.609 20.2322C48.609 20.2322 46.4107 23.2166 43.4254 23.2166C40.4374 23.2166 38.3692 20.2322 38.3692 20.2322L36.1932 25.6026H30.0635L38.1931 5.58817C39.0078 3.44459 41.0957 1.04199 43.8879 1.04199ZM43.4608 7.37832L39.3914 17.5744C39.3914 17.5744 40.984 18.9409 43.4569 18.9409C45.9324 18.9409 47.5237 17.5922 47.5237 17.5922L43.4608 7.37832Z" fill="white"/>
<path d="M13.2634 21.4329C8.6789 21.4329 4.01689 16.5664 1.6123 13.6113L3.04455 25.6039H22.5638L24.5413 13.7453C21.9751 16.5996 17.0726 21.4329 13.2634 21.4329Z" fill="white"/>
<path d="M26.1535 11.7514L21.0566 7.2397C21.0671 7.23842 21.0763 7.23459 21.0855 7.23204L13.0965 0.0306226V0L13.0794 0.0153113L13.061 0V0.0306226L5.07066 7.23204C5.08117 7.23332 5.09037 7.23714 5.09694 7.23842L0 11.7514L0.6202 12.0615C2.57672 12.9036 6.11527 15.0855 13.0597 15.0867C20.0014 15.0867 23.5781 12.9036 25.5333 12.0615L26.1535 11.7514Z" fill="white"/>
</svg>
