<svg width="34" height="33" viewBox="0 0 34 33" fill="none" xmlns="http://www.w3.org/2000/svg">
<path fill-rule="evenodd" clip-rule="evenodd" d="M15.5696 8.32255C11.9882 8.46432 8.95708 9.1235 7.35713 10.0175C6.40188 10.5508 5.92546 11.2081 5.92546 11.8504V12.2241H3.51443C3.24825 12.2241 3.03223 12.4401 3.03223 12.7063V14.7957C3.03223 15.0527 3.2333 15.2644 3.48984 15.2774C4.44509 15.3266 5.24217 15.6222 5.92884 16.0904C5.93125 18.0809 5.93655 20.411 5.94571 22.2366C5.94571 24.3303 7.4338 26.1309 9.49233 26.5258C9.49426 26.5263 9.49619 26.5263 9.49811 26.5268C14.3718 27.3981 19.3689 27.3803 24.4894 26.5128C24.4913 26.5128 24.4928 26.5123 24.4947 26.5123C26.5855 26.1357 28.1069 24.3159 28.1069 22.1913V16.0885C28.7926 15.6212 29.5892 15.3266 30.5425 15.2774C30.799 15.2644 31.0001 15.0527 31.0001 14.7957V12.7063C31.0001 12.4401 30.7841 12.2241 30.5179 12.2241H28.1069V11.8504C28.1069 11.2081 27.6305 10.5508 26.6752 10.0175C25.0753 9.1235 22.0441 8.46432 18.4628 8.32255V7.88423H19.4272C19.6934 7.88423 19.9094 7.6682 19.9094 7.40203V5.95541C19.9094 5.68923 19.6934 5.47321 19.4272 5.47321H14.6052C14.339 5.47321 14.1229 5.68923 14.1229 5.95541V7.40203C14.1229 7.6682 14.339 7.88423 14.6052 7.88423H15.5696V8.32255ZM27.1425 22.1913V12.3793C20.4331 12.9864 13.6817 12.984 6.88987 12.3789C6.89035 13.9904 6.89324 18.9344 6.91012 22.2318V22.2342C6.91012 23.8669 8.06886 25.2692 9.67123 25.5783C14.4354 26.4294 19.3202 26.4101 24.3259 25.5624C25.9563 25.2682 27.1425 23.8486 27.1425 22.1913ZM3.99664 13.1885H5.92546V14.962C5.34922 14.6554 4.71175 14.4446 3.99664 14.3545V13.1885ZM30.0357 13.1885V14.3545C29.3206 14.4446 28.6831 14.6554 28.1069 14.962V13.1885H30.0357ZM26.9549 11.428C26.9014 11.3662 26.8377 11.305 26.7668 11.2433C26.4491 10.9665 25.9823 10.7143 25.3993 10.4838C23.5086 9.73686 20.4562 9.25852 17.0162 9.25852C13.5761 9.25852 10.5238 9.73686 8.63304 10.4838C8.05005 10.7143 7.58328 10.9665 7.26551 11.2433C7.19462 11.3045 7.13145 11.3658 7.07793 11.4275C13.7435 12.0153 20.3694 12.0177 26.9549 11.428ZM17.0711 8.29411L17.1145 8.29459H17.1637H17.1975H17.2173C17.3113 8.29507 17.4048 8.29604 17.4984 8.29748V7.88423H16.534V8.29748C16.6275 8.29604 16.7211 8.29507 16.8151 8.29459H16.8349H16.8951L16.9554 8.29411H17.0162H17.0711ZM18.945 6.43762V6.91982H15.0874V6.43762H18.945Z" fill="#CD001A"/>
</svg>
