<svg width="34" height="34" viewBox="0 0 34 34" fill="none" xmlns="http://www.w3.org/2000/svg">
<path d="M9.5 9.95654C8.80777 9.95654 8.13108 10.1618 7.5555 10.5464C6.97993 10.931 6.53133 11.4776 6.26642 12.1172C6.00152 12.7567 5.9322 13.4604 6.06725 14.1394C6.2023 14.8183 6.53564 15.4419 7.02513 15.9314C7.51461 16.4209 8.13825 16.7542 8.81718 16.8893C9.49612 17.0243 10.1999 16.955 10.8394 16.6901C11.4789 16.4252 12.0256 15.9766 12.4101 15.401C12.7947 14.8255 13 14.1488 13 13.4565C12.9989 12.5286 12.6299 11.639 11.9737 10.9828C11.3176 10.3267 10.4279 9.9576 9.5 9.95654ZM9.5 15.9565C9.00555 15.9565 8.5222 15.8099 8.11108 15.5352C7.69995 15.2605 7.37952 14.8701 7.1903 14.4133C7.00108 13.9564 6.95157 13.4538 7.04804 12.9688C7.1445 12.4839 7.3826 12.0384 7.73223 11.6888C8.08187 11.3391 8.52732 11.101 9.01227 11.0046C9.49723 10.9081 9.99989 10.9576 10.4567 11.1468C10.9135 11.3361 11.304 11.6565 11.5787 12.0676C11.8534 12.4787 12 12.9621 12 13.4565C11.9992 14.1193 11.7356 14.7548 11.2669 15.2234C10.7982 15.6921 10.1628 15.9557 9.5 15.9565ZM10 12.4565C10 12.5554 9.97068 12.6521 9.91574 12.7343C9.8608 12.8166 9.78271 12.8806 9.69134 12.9185C9.59998 12.9563 9.49945 12.9662 9.40246 12.9469C9.30546 12.9276 9.21637 12.88 9.14645 12.8101C9.07652 12.7402 9.0289 12.6511 9.00961 12.5541C8.99032 12.4571 9.00022 12.3566 9.03806 12.2652C9.0759 12.1738 9.13999 12.0957 9.22222 12.0408C9.30444 11.9859 9.40111 11.9565 9.5 11.9565C9.63261 11.9565 9.75979 12.0092 9.85355 12.103C9.94732 12.1968 10 12.3239 10 12.4565ZM19 12.4565C19 12.5554 18.9707 12.6521 18.9157 12.7343C18.8608 12.8166 18.7827 12.8806 18.6913 12.9185C18.6 12.9563 18.4994 12.9662 18.4025 12.9469C18.3055 12.9276 18.2164 12.88 18.1464 12.8101C18.0765 12.7402 18.0289 12.6511 18.0096 12.5541C17.9903 12.4571 18.0002 12.3566 18.0381 12.2652C18.0759 12.1738 18.14 12.0957 18.2222 12.0408C18.3044 11.9859 18.4011 11.9565 18.5 11.9565C18.6326 11.9565 18.7598 12.0092 18.8536 12.103C18.9473 12.1968 19 12.3239 19 12.4565ZM11 13.9565C11 14.0554 10.9707 14.1521 10.9157 14.2343C10.8608 14.3166 10.7827 14.3806 10.6913 14.4185C10.6 14.4563 10.4994 14.4662 10.4025 14.4469C10.3055 14.4276 10.2164 14.38 10.1464 14.3101C10.0765 14.2402 10.0289 14.1511 10.0096 14.0541C9.99032 13.9571 10.0002 13.8566 10.0381 13.7652C10.0759 13.6738 10.14 13.5957 10.2222 13.5408C10.3044 13.4859 10.4011 13.4565 10.5 13.4565C10.6326 13.4565 10.7598 13.5092 10.8536 13.603C10.9473 13.6968 11 13.8239 11 13.9565ZM18 13.9565C18 14.0554 17.9707 14.1521 17.9157 14.2343C17.8608 14.3166 17.7827 14.3806 17.6913 14.4185C17.6 14.4563 17.4994 14.4662 17.4025 14.4469C17.3055 14.4276 17.2164 14.38 17.1464 14.3101C17.0765 14.2402 17.0289 14.1511 17.0096 14.0541C16.9903 13.9571 17.0002 13.8566 17.0381 13.7652C17.0759 13.6738 17.14 13.5957 17.2222 13.5408C17.3044 13.4859 17.4011 13.4565 17.5 13.4565C17.6326 13.4565 17.7598 13.5092 17.8536 13.603C17.9473 13.6968 18 13.8239 18 13.9565ZM18.5 9.95654C17.8078 9.95654 17.1311 10.1618 16.5555 10.5464C15.9799 10.931 15.5313 11.4776 15.2664 12.1172C15.0015 12.7567 14.9322 13.4604 15.0673 14.1394C15.2023 14.8183 15.5356 15.4419 16.0251 15.9314C16.5146 16.4209 17.1383 16.7542 17.8172 16.8893C18.4961 17.0243 19.1999 16.955 19.8394 16.6901C20.4789 16.4252 21.0256 15.9766 21.4101 15.401C21.7947 14.8255 22 14.1488 22 13.4565C21.9989 12.5286 21.6299 11.639 20.9737 10.9828C20.3176 10.3267 19.4279 9.9576 18.5 9.95654ZM18.5 15.9565C18.0055 15.9565 17.5222 15.8099 17.1111 15.5352C16.7 15.2605 16.3795 14.8701 16.1903 14.4133C16.0011 13.9564 15.9516 13.4538 16.048 12.9688C16.1445 12.4839 16.3826 12.0384 16.7322 11.6888C17.0819 11.3391 17.5273 11.101 18.0123 11.0046C18.4972 10.9081 18.9999 10.9576 19.4567 11.1468C19.9135 11.3361 20.304 11.6565 20.5787 12.0676C20.8534 12.4787 21 12.9621 21 13.4565C20.9992 14.1193 20.7356 14.7548 20.2669 15.2234C19.7982 15.6921 19.1628 15.9557 18.5 15.9565ZM9 13.9565C9 14.0554 8.97068 14.1521 8.91574 14.2343C8.86079 14.3166 8.78271 14.3806 8.69134 14.4185C8.59998 14.4563 8.49945 14.4662 8.40246 14.4469C8.30547 14.4276 8.21637 14.38 8.14645 14.3101C8.07652 14.2402 8.0289 14.1511 8.00961 14.0541C7.99032 13.9571 8.00022 13.8566 8.03806 13.7652C8.0759 13.6738 8.13999 13.5957 8.22222 13.5408C8.30444 13.4859 8.40111 13.4565 8.5 13.4565C8.63261 13.4565 8.75979 13.5092 8.85355 13.603C8.94732 13.6968 9 13.8239 9 13.9565ZM20 13.9565C20 14.0554 19.9707 14.1521 19.9157 14.2343C19.8608 14.3166 19.7827 14.3806 19.6913 14.4185C19.6 14.4563 19.4994 14.4662 19.4025 14.4469C19.3055 14.4276 19.2164 14.38 19.1464 14.3101C19.0765 14.2402 19.0289 14.1511 19.0096 14.0541C18.9903 13.9571 19.0002 13.8566 19.0381 13.7652C19.0759 13.6738 19.14 13.5957 19.2222 13.5408C19.3044 13.4859 19.4011 13.4565 19.5 13.4565C19.6326 13.4565 19.7598 13.5092 19.8536 13.603C19.9473 13.6968 20 13.8239 20 13.9565ZM31.6085 18.863C31.3132 18.5704 30.9228 18.3933 30.5082 18.3637C30.0935 18.334 29.6819 18.4539 29.348 18.7015L29 18.9615V15.9595C28.9991 15.4681 28.8948 14.9823 28.6939 14.5338C28.4931 14.0852 28.2001 13.684 27.834 13.356C27.735 13.2699 27.606 13.2261 27.475 13.2342C27.344 13.2422 27.2214 13.3015 27.1337 13.3992C27.046 13.4969 27.0003 13.6251 27.0063 13.7562C27.0123 13.8874 27.0697 14.0108 27.166 14.1C27.4276 14.3342 27.6371 14.6207 27.7808 14.9411C27.9245 15.2614 27.9992 15.6084 28 15.9595V19.961C28 20.0539 28.0259 20.1449 28.0747 20.2239C28.1235 20.3029 28.1933 20.3667 28.2764 20.4083C28.3594 20.4498 28.4524 20.4674 28.5449 20.459C28.6374 20.4507 28.7257 20.4168 28.8 20.361L29.947 19.5025C30.0881 19.398 30.2619 19.3474 30.4371 19.3599C30.6122 19.3724 30.7771 19.4471 30.902 19.5705C31.0258 19.6933 31.1013 19.8565 31.1149 20.0303C31.1285 20.2041 31.0792 20.377 30.976 20.5175L27.745 24.9565H19.5V23.4565C19.5 23.3239 19.4473 23.1968 19.3536 23.103C19.2598 23.0092 19.1326 22.9565 19 22.9565C18.8674 22.9565 18.7402 23.0092 18.6464 23.103C18.5527 23.1968 18.5 23.3239 18.5 23.4565V27.4565C18.5004 27.8542 18.6586 28.2355 18.9398 28.5168C19.221 28.798 19.6023 28.9561 20 28.9565H27C27.3977 28.9561 27.779 28.798 28.0602 28.5168C28.3414 28.2355 28.4996 27.8542 28.5 27.4565V25.619L31.785 21.1065C32.0295 20.7736 32.1461 20.364 32.1137 19.9522C32.0813 19.5405 31.902 19.1536 31.6085 18.863ZM27.5 27.4565C27.5 27.5892 27.4473 27.7163 27.3536 27.8101C27.2598 27.9039 27.1326 27.9565 27 27.9565H20C19.8674 27.9565 19.7402 27.9039 19.6464 27.8101C19.5527 27.7163 19.5 27.5892 19.5 27.4565V25.9565H27.5V27.4565ZM26 18.4565V8.45654C25.9989 7.52861 25.6299 6.63899 24.9737 5.98284C24.3176 5.32669 23.4279 4.9576 22.5 4.95654H5.5C4.57207 4.9576 3.68244 5.32669 3.0263 5.98284C2.37015 6.63899 2.00106 7.52861 2 8.45654V18.4565C2.00106 19.3845 2.37015 20.2741 3.0263 20.9302C3.68244 21.5864 4.57207 21.9555 5.5 21.9565H22.5C23.4279 21.9555 24.3176 21.5864 24.9737 20.9302C25.6299 20.2741 25.9989 19.3845 26 18.4565ZM3 18.4565V8.45654C3.00079 7.79375 3.26444 7.15832 3.73311 6.68965C4.20178 6.22098 4.8372 5.95734 5.5 5.95654H22.5C23.1628 5.95734 23.7982 6.22098 24.2669 6.68965C24.7356 7.15832 24.9992 7.79375 25 8.45654V18.4565C24.9992 19.1193 24.7356 19.7548 24.2669 20.2234C23.7982 20.6921 23.1628 20.9557 22.5 20.9565H5.5C4.8372 20.9557 4.20178 20.6921 3.73311 20.2234C3.26444 19.7548 3.00079 19.1193 3 18.4565ZM24 18.4565V8.45654C23.9996 8.05884 23.8414 7.67754 23.5602 7.39632C23.279 7.1151 22.8977 6.95694 22.5 6.95654H5.5C5.1023 6.95694 4.721 7.1151 4.43978 7.39632C4.15856 7.67754 4.0004 8.05884 4 8.45654V18.4565C4.0004 18.8542 4.15856 19.2355 4.43978 19.5168C4.721 19.798 5.1023 19.9561 5.5 19.9565H22.5C22.8977 19.9561 23.279 19.798 23.5602 19.5168C23.8414 19.2355 23.9996 18.8542 24 18.4565ZM5 18.4565V8.45654C5 8.32393 5.05268 8.19676 5.14645 8.10299C5.24022 8.00922 5.36739 7.95654 5.5 7.95654H22.5C22.6326 7.95654 22.7598 8.00922 22.8536 8.10299C22.9473 8.19676 23 8.32393 23 8.45654V18.4565C23 18.5892 22.9473 18.7163 22.8536 18.8101C22.7598 18.9039 22.6326 18.9565 22.5 18.9565H5.5C5.36739 18.9565 5.24022 18.9039 5.14645 18.8101C5.05268 18.7163 5 18.5892 5 18.4565Z" fill="#CD001A"/>
</svg>
