<svg width="34" height="34" viewBox="0 0 34 34" fill="none" xmlns="http://www.w3.org/2000/svg">
<g clip-path="url(#clip0_388_469)">
<path d="M14.1875 8.39281V7.625C14.1863 7.33519 14.0956 7.05283 13.9278 6.81655C13.76 6.58026 13.5232 6.4016 13.25 6.305V3.875C13.25 3.50204 13.1018 3.14435 12.8381 2.88063C12.5744 2.61691 12.2167 2.46875 11.8438 2.46875H7.15625C6.78329 2.46875 6.4256 2.61691 6.16188 2.88063C5.89816 3.14435 5.75 3.50204 5.75 3.875V6.305C5.47676 6.4016 5.24004 6.58026 5.07223 6.81655C4.90441 7.05283 4.8137 7.33519 4.8125 7.625V8.39281L2.57703 11.075C2.50698 11.1593 2.46867 11.2654 2.46875 11.375V29.1875C2.46949 29.8089 2.71666 30.4046 3.15604 30.844C3.59542 31.2833 4.19113 31.5305 4.8125 31.5312H14.1875C14.8089 31.5305 15.4046 31.2833 15.844 30.844C16.2833 30.4046 16.5305 29.8089 16.5312 29.1875V11.375C16.5313 11.2654 16.493 11.1593 16.423 11.075L14.1875 8.39281ZM15.5938 11.8438V26.8438H3.40625V11.8438H15.5938ZM3.93828 10.9062L5.50109 9.03125H13.4989L15.0617 10.9062H3.93828ZM10.4375 3.40625C10.4375 3.65489 10.3387 3.89335 10.1629 4.06916C9.9871 4.24498 9.74864 4.34375 9.5 4.34375C9.25136 4.34375 9.0129 4.24498 8.83709 4.06916C8.66127 3.89335 8.5625 3.65489 8.5625 3.40625H10.4375ZM7.15625 3.40625H7.625C7.625 3.90353 7.82254 4.38044 8.17417 4.73208C8.52581 5.08371 9.00272 5.28125 9.5 5.28125C9.99728 5.28125 10.4742 5.08371 10.8258 4.73208C11.1775 4.38044 11.375 3.90353 11.375 3.40625H11.8438C11.9681 3.40625 12.0873 3.45564 12.1752 3.54354C12.2631 3.63145 12.3125 3.75068 12.3125 3.875V6.21875H6.6875V3.875C6.6875 3.75068 6.73689 3.63145 6.82479 3.54354C6.9127 3.45564 7.03193 3.40625 7.15625 3.40625ZM6.21875 7.15625H12.7812C12.9056 7.15625 13.0248 7.20564 13.1127 7.29354C13.2006 7.38145 13.25 7.50068 13.25 7.625V8.09375H5.75V7.625C5.75 7.50068 5.79939 7.38145 5.88729 7.29354C5.9752 7.20564 6.09443 7.15625 6.21875 7.15625ZM14.1875 30.5938H4.8125C4.43954 30.5938 4.08185 30.4456 3.81813 30.1819C3.55441 29.9181 3.40625 29.5605 3.40625 29.1875V27.7812H15.5938V29.1875C15.5937 29.5605 15.4456 29.9181 15.1819 30.1819C14.9181 30.4456 14.5605 30.5938 14.1875 30.5938ZM30.125 19.3438H18.875C18.502 19.3438 18.1444 19.4919 17.8806 19.7556C17.6169 20.0194 17.4688 20.377 17.4688 20.75V26.375C17.4704 27.742 18.0141 29.0526 18.9808 30.0192C19.9474 30.9859 21.258 31.5296 22.625 31.5312H26.375C27.742 31.5296 29.0526 30.9859 30.0192 30.0192C30.9859 29.0526 31.5296 27.742 31.5312 26.375V20.75C31.5312 20.377 31.3831 20.0194 31.1194 19.7556C30.8556 19.4919 30.498 19.3438 30.125 19.3438ZM18.875 20.2812H30.125C30.2493 20.2812 30.3685 20.3306 30.4565 20.4185C30.5444 20.5065 30.5938 20.6257 30.5938 20.75V22.1562H18.4062V20.75C18.4062 20.6257 18.4556 20.5065 18.5435 20.4185C18.6315 20.3306 18.7507 20.2812 18.875 20.2812ZM26.375 30.5938H22.625C21.5065 30.5925 20.4342 30.1476 19.6433 29.3567C18.8524 28.5658 18.4075 27.4935 18.4062 26.375V23.0938H30.5938V26.375C30.5925 27.4935 30.1476 28.5658 29.3567 29.3567C28.5658 30.1476 27.4935 30.5925 26.375 30.5938Z" fill="#CD001A"/>
<path d="M9.5 25.9062C9.87296 25.9062 10.2306 25.7581 10.4944 25.4944C10.7581 25.2306 10.9062 24.873 10.9062 24.5V14.1875C10.9062 13.8145 10.7581 13.4569 10.4944 13.1931C10.2306 12.9294 9.87296 12.7813 9.5 12.7812C9.12704 12.7813 8.76935 12.9294 8.50563 13.1931C8.24191 13.4569 8.09375 13.8145 8.09375 14.1875V24.5C8.09375 24.873 8.24191 25.2306 8.50563 25.4944C8.76935 25.7581 9.12704 25.9062 9.5 25.9062ZM9.03125 14.1875C9.03125 14.0632 9.08064 13.944 9.16854 13.856C9.25645 13.7681 9.37568 13.7188 9.5 13.7188C9.62432 13.7188 9.74355 13.7681 9.83146 13.856C9.91936 13.944 9.96875 14.0632 9.96875 14.1875V24.5C9.96875 24.6243 9.91936 24.7435 9.83146 24.8315C9.74355 24.9194 9.62432 24.9688 9.5 24.9688C9.37568 24.9688 9.25645 24.9194 9.16854 24.8315C9.08064 24.7435 9.03125 24.6243 9.03125 24.5V14.1875Z" fill="#CD001A"/>
</g>
<defs>
<clipPath id="clip0_388_469">
<rect width="30" height="30" fill="white" transform="translate(2 2)"/>
</clipPath>
</defs>
</svg>
