<svg width="34" height="34" viewBox="0 0 34 34" fill="none" xmlns="http://www.w3.org/2000/svg">
<g clip-path="url(#clip0_388_521)">
<path d="M30.0396 30.7812H3.96045C3.43849 30.7807 2.93807 30.573 2.56899 30.204C2.19991 29.8349 1.99229 29.3345 1.9917 28.8125V5.1875C1.99229 4.66554 2.19991 4.16512 2.56899 3.79604C2.93807 3.42696 3.43849 3.21935 3.96045 3.21875H30.0396C30.5616 3.21935 31.062 3.42696 31.4311 3.79604C31.8002 4.16512 32.0078 4.66554 32.0084 5.1875V28.8125C32.0078 29.3345 31.8002 29.8349 31.4311 30.204C31.062 30.573 30.5616 30.7807 30.0396 30.7812ZM3.96045 3.78125C3.58763 3.7817 3.2302 3.93 2.96657 4.19362C2.70295 4.45725 2.55465 4.81468 2.5542 5.1875V28.8125C2.55465 29.1853 2.70295 29.5428 2.96657 29.8064C3.2302 30.07 3.58763 30.2183 3.96045 30.2188H30.0396C30.4125 30.2183 30.7699 30.07 31.0335 29.8064C31.2971 29.5428 31.4454 29.1853 31.4459 28.8125V5.1875C31.4454 4.81468 31.2971 4.45725 31.0335 4.19362C30.7699 3.93 30.4125 3.7817 30.0396 3.78125H3.96045Z" fill="#CD001A"/>
<path d="M29.5736 28.5312H4.42651C4.35192 28.5312 4.28038 28.5016 4.22764 28.4489C4.1749 28.3961 4.14526 28.3246 4.14526 28.25V5.75C4.14526 5.67541 4.1749 5.60387 4.22764 5.55113C4.28038 5.49838 4.35192 5.46875 4.42651 5.46875H29.5736C29.6482 5.46875 29.7198 5.49838 29.7725 5.55113C29.8253 5.60387 29.8549 5.67541 29.8549 5.75V28.25C29.8549 28.3246 29.8253 28.3961 29.7725 28.4489C29.7198 28.5016 29.6482 28.5312 29.5736 28.5312ZM4.70776 27.9688H29.2924V6.03125H4.70776V27.9688Z" fill="#CD001A"/>
<path d="M23.5944 10.8181C23.4738 10.698 22.8126 10.0447 22.1741 10.617C21.9624 10.8108 21.7157 10.9753 21.23 10.6766L20.7144 10.3591C20.6967 10.3484 19.8516 9.94343 20.4782 9.10643C20.7758 8.71547 21.1693 8.40796 21.6206 8.21363C22.0719 8.01931 22.5657 7.94476 23.0543 7.9972C23.5428 8.04964 24.0095 8.22729 24.4093 8.51296C24.8091 8.79863 25.1284 9.18265 25.3362 9.62787C25.4403 9.85765 25.5854 10.2832 25.384 10.5537C25.1853 10.8113 24.9157 11.0053 24.6084 11.112C24.0956 11.2917 23.8445 11.0684 23.5944 10.8181ZM23.9927 10.421C24.196 10.6249 24.2222 10.6519 24.4224 10.5813C24.6241 10.5125 24.8014 10.3864 24.9326 10.2185C24.9475 10.0011 24.3887 8.65109 22.9476 8.54618C22.5632 8.51849 22.178 8.58589 21.8259 8.74242C21.4738 8.89894 21.1657 9.13978 20.9288 9.44365C20.7257 9.71477 20.8134 9.76118 20.9901 9.86834L21.5244 10.1974C21.5777 10.2379 21.6394 10.2658 21.705 10.279C21.7334 10.2649 22.733 9.16662 23.9927 10.4207V10.421ZM20.6641 12.4055C20.5443 12.4055 20.562 12.4021 19.7433 12.1206C19.0261 11.8745 19.448 10.3555 20.2299 10.711L21.0171 11.0681C21.6617 11.3612 21.1948 12.4055 20.6641 12.4055ZM19.9345 11.5916L20.6658 11.8433L20.7791 11.5668L19.9975 11.2228L19.9345 11.5916ZM20.0572 23.8178C20.0628 23.7801 20.076 23.744 20.096 23.7116C20.116 23.6793 20.1424 23.6513 20.1735 23.6294C20.2047 23.6075 20.2399 23.5922 20.2772 23.5843C20.3144 23.5765 20.3528 23.5763 20.3902 23.5838L24.1831 24.3375C24.2539 24.3516 24.3166 24.3924 24.3582 24.4515C24.3998 24.5105 24.417 24.5833 24.4064 24.6548C24.0605 26.9723 19.7143 26.1012 20.0572 23.8178ZM20.6095 24.2008C20.7755 25.4594 23.2944 25.9536 23.7781 24.8306L20.6095 24.2008Z" fill="#CD001A"/>
<path d="M23.2898 17.3592C23.0117 17.2889 22.725 17.2595 22.4385 17.2717C22.2434 17.2812 22.0514 17.22 21.8977 17.0995C21.7441 16.9789 21.639 16.807 21.6017 16.6153C21.1292 14.318 21.0302 10.8173 22.9155 10.9357C24.2835 11.0159 24.8178 14.0407 24.3015 16.7162C24.2801 16.8264 24.2365 16.931 24.1734 17.0238C24.1102 17.1165 24.0288 17.1953 23.9341 17.2555C23.8394 17.3157 23.7334 17.3559 23.6226 17.3738C23.5118 17.3916 23.3986 17.3866 23.2898 17.3592ZM23.4287 16.8144C23.4633 16.8231 23.4993 16.8246 23.5344 16.8188C23.5696 16.8131 23.6033 16.8002 23.6333 16.781C23.6633 16.7618 23.6891 16.7367 23.709 16.7072C23.729 16.6777 23.7427 16.6444 23.7494 16.6094C24.3017 13.7457 23.5592 11.5379 22.8823 11.4971C21.3163 11.4321 22.0365 15.9372 22.1527 16.5022C22.1643 16.5625 22.1971 16.6167 22.2453 16.6548C22.2935 16.6929 22.3537 16.7124 22.4151 16.7098C22.7563 16.6943 23.0979 16.7296 23.4287 16.8144ZM22.8252 23.7554L21.7907 23.6294C21.7226 23.621 21.6598 23.5881 21.6143 23.5367C21.5687 23.4853 21.5436 23.419 21.5435 23.3504C21.591 22.5182 21.6859 21.6894 21.8279 20.868C21.8341 20.8306 21.8478 20.7948 21.8683 20.7628C21.8887 20.7309 21.9154 20.7034 21.9468 20.682C21.9781 20.6606 22.0135 20.6457 22.0507 20.6384C22.0879 20.631 22.1263 20.6313 22.1634 20.6391L23.3871 20.8981C23.4593 20.9134 23.5225 20.9565 23.5632 21.018C23.6039 21.0795 23.6189 21.1545 23.6048 21.2269C23.5635 21.4418 23.1959 23.3315 23.1286 23.5565C23.1096 23.6202 23.0687 23.675 23.0131 23.7114C22.9575 23.7478 22.8911 23.7634 22.8252 23.7554ZM22.1142 23.102L22.6429 23.1664C22.7262 22.7794 22.88 22.0043 23.0001 21.3912L22.3364 21.2505C22.2689 21.6907 22.1462 22.5353 22.1142 23.102ZM20.351 13.8877C20.3302 13.8877 20.4059 13.8919 19.536 13.8393C18.8117 13.7952 18.7496 12.2185 19.6282 12.3501L20.4824 12.4843C21.2119 12.5987 21.015 13.8877 20.351 13.8877ZM19.5784 13.2785L20.3505 13.3252L20.3865 13.0282L19.5407 12.9059L19.5784 13.2785ZM19.6549 15.5417C19.0207 15.5417 18.6188 14.1729 19.4538 14.0716L20.3122 13.9664C21.0525 13.8787 21.2347 15.2059 20.5372 15.3603C20.2484 15.4442 19.9534 15.5048 19.6549 15.5417ZM20.369 14.5157L19.5225 14.6296L19.6605 14.9773L20.4163 14.811L20.369 14.5157ZM19.5652 15.9144L20.3977 15.6826C21.1076 15.4844 21.505 16.7666 20.828 17.027L20.0979 17.3077C19.3914 17.5797 18.724 16.147 19.5652 15.9144ZM20.5355 16.2173L19.7157 16.4564L19.9041 16.7798L20.6264 16.5022L20.5355 16.2173Z" fill="#CD001A"/>
<path d="M25.1168 12.8024C24.5855 12.8024 24.1189 11.7575 24.7641 11.4645L25.5513 11.1073C26.3577 10.7416 26.7267 12.2804 26.0379 12.5175C25.2335 12.7939 25.2386 12.8024 25.1168 12.8024ZM25.7693 11.6121L24.9967 11.9769L25.1283 12.2455L25.8467 11.9887L25.7693 11.6121ZM25.4304 14.2843C24.7664 14.2843 24.5692 12.9956 25.2991 12.8808L26.1532 12.7467C27.0217 12.6173 26.9753 14.1915 26.2458 14.2359C25.3756 14.2885 25.4515 14.2843 25.4304 14.2843ZM26.2286 13.2915L25.3863 13.4369L25.4417 13.7302L26.2027 13.6751L26.2286 13.2915ZM26.0078 15.9254L25.2439 15.7566C24.536 15.5997 24.7371 14.2739 25.4692 14.363L26.3273 14.4679C27.1953 14.5731 26.7399 16.0879 26.0078 15.9254ZM25.4012 14.9213L25.3736 15.2189L26.1206 15.3741L26.2508 15.0127L25.4012 14.9213ZM25.8804 17.7411C25.7448 17.7411 25.7418 17.727 24.9531 17.4239C24.2753 17.1629 24.6741 15.8798 25.384 16.0795C26.2623 16.3242 26.4471 16.3216 26.5765 16.6271C26.7123 16.9466 26.3785 17.7411 25.8804 17.7411ZM25.2327 16.6209L25.1613 16.9114L25.8765 17.1764L26.0593 16.8383L25.2327 16.6209ZM20.9161 21.6682L20.1362 21.6058C19.4021 21.5478 19.3982 19.9621 20.2574 20.1188L21.1087 20.2695C21.8445 20.3989 21.6136 21.718 20.9161 21.6682ZM20.1899 21.0458L20.9611 21.1071L21.0024 20.8112L20.1592 20.6726L20.1899 21.0458ZM20.1224 23.3698C19.3908 23.3698 19.2213 21.8595 20.054 21.8803L20.9192 21.898C21.658 21.912 21.6645 23.2545 20.9448 23.3099C20.0903 23.3737 20.1513 23.3698 20.1224 23.3698ZM20.0431 22.4428L20.1311 22.8064L20.9023 22.7488L20.8972 22.4498L20.0431 22.4428ZM25.114 22.4079C25.062 22.4079 25.105 22.4121 24.2629 22.294C23.5688 22.1984 23.6245 20.8531 24.3783 20.8869L25.2423 20.9249C26.084 20.962 25.7851 22.4079 25.114 22.4079ZM24.3538 21.4488L24.3496 21.7481L25.1061 21.8445L25.2082 21.4739L24.3538 21.4488ZM24.6269 24.1173L23.8785 23.8904C23.1843 23.6794 23.4881 22.3699 24.2101 22.5179L25.0575 22.6889C25.904 22.8599 25.3362 24.3305 24.6272 24.1173H24.6269ZM24.099 23.0694L24.0489 23.3641L24.7813 23.5765L24.9391 23.2258L24.099 23.0694ZM9.39157 11.112C9.08421 11.0054 8.81464 10.8113 8.61588 10.5538C8.41478 10.2832 8.55963 9.85739 8.66369 9.62789C8.87154 9.18266 9.19078 8.79861 9.59054 8.51291C9.9903 8.22721 10.457 8.04953 10.9456 7.99707C11.4341 7.9446 11.9279 8.01912 12.3793 8.21342C12.8306 8.40772 13.2241 8.71522 13.5217 9.10617C14.1483 9.94345 13.3035 10.3482 13.2855 10.3591L12.7699 10.6767C12.2842 10.9751 12.0376 10.8105 11.8258 10.617C11.1873 10.0444 10.5261 10.6978 10.4055 10.8179C10.1552 11.0685 9.90428 11.2918 9.39157 11.112ZM12.2946 10.2787C12.3602 10.2657 12.4219 10.238 12.4752 10.1977L13.0096 9.86836C13.1862 9.76092 13.2739 9.71479 13.0712 9.44367C12.8342 9.13971 12.5261 8.89879 12.1739 8.74221C11.8218 8.58563 11.4365 8.51822 11.0521 8.54592C9.61094 8.65111 9.05238 10.0008 9.067 10.2182C9.19828 10.3862 9.37567 10.5123 9.57747 10.581C9.77772 10.6516 9.80388 10.6246 10.0069 10.4207C11.2669 9.16636 12.2665 10.2646 12.2946 10.2787ZM12.9828 11.0685L13.7701 10.7113C14.5519 10.3558 14.9738 11.8748 14.2566 12.1209C13.4376 12.4021 13.4553 12.4058 13.3355 12.4058C12.8051 12.4058 12.3382 11.3618 12.9828 11.0685ZM14.0024 11.2231L13.2205 11.5668L13.3341 11.8433L14.0654 11.5919L14.0024 11.2231ZM9.5935 24.6548C9.58287 24.5834 9.60013 24.5106 9.6417 24.4515C9.68327 24.3924 9.74598 24.3516 9.81681 24.3375L13.6098 23.5838C13.6471 23.5763 13.6856 23.5764 13.7228 23.5843C13.7601 23.5921 13.7954 23.6074 13.8266 23.6293C13.8578 23.6512 13.8842 23.6792 13.9042 23.7116C13.9242 23.744 13.9374 23.7801 13.943 23.8178C14.2859 26.1013 9.93944 26.972 9.5935 24.6548ZM10.2218 24.8306C10.7056 25.9536 13.2242 25.4595 13.3904 24.2006L10.2218 24.8306Z" fill="#CD001A"/>
<path d="M9.69872 16.7162C9.18206 14.0407 9.71644 11.0158 11.0844 10.9357C12.9697 10.8176 12.8704 14.318 12.3979 16.6152C12.3606 16.8069 12.2556 16.9788 12.102 17.0993C11.9484 17.2199 11.7565 17.2811 11.5614 17.2717C11.2749 17.2595 10.9881 17.2889 10.7101 17.3592C10.6013 17.3866 10.4881 17.3916 10.3773 17.3737C10.2665 17.3559 10.1605 17.3157 10.0658 17.2555C9.97113 17.1953 9.88971 17.1165 9.82654 17.0237C9.76337 16.931 9.72006 16.8264 9.69872 16.7162ZM11.5848 16.7097C11.6462 16.7124 11.7065 16.6928 11.7547 16.6547C11.8029 16.6165 11.8357 16.5623 11.8472 16.5019C11.9633 15.9372 12.6836 11.4321 11.1176 11.4971C10.4407 11.5378 9.69844 13.7457 10.2505 16.6093C10.2572 16.6444 10.2709 16.6776 10.2908 16.7072C10.3108 16.7367 10.3366 16.7618 10.3666 16.781C10.3966 16.8002 10.4303 16.8131 10.4654 16.8188C10.5006 16.8246 10.5366 16.823 10.5712 16.8144C10.902 16.7296 11.2436 16.6943 11.5848 16.7097ZM10.8713 23.5568C10.8038 23.3318 10.4364 21.4418 10.3951 21.2269C10.381 21.1545 10.396 21.0795 10.4367 21.018C10.4774 20.9565 10.5406 20.9134 10.6128 20.8981L11.8362 20.6388C11.8734 20.6309 11.9118 20.6307 11.9491 20.638C11.9863 20.6454 12.0217 20.6602 12.0531 20.6816C12.0845 20.7031 12.1112 20.7306 12.1317 20.7627C12.1521 20.7947 12.1658 20.8305 12.172 20.868C12.3139 21.6894 12.4087 22.5182 12.4561 23.3503C12.4561 23.419 12.4309 23.4852 12.3855 23.5366C12.34 23.588 12.2773 23.621 12.2092 23.6293L11.1747 23.7551C11.1089 23.763 11.0423 23.7475 10.9868 23.7113C10.9313 23.675 10.8904 23.6203 10.8713 23.5568ZM11.6633 21.2505L11.0001 21.3912C11.1199 22.0043 11.274 22.7794 11.3573 23.1664L11.886 23.102C11.8537 22.5353 11.7313 21.6907 11.6633 21.2505ZM13.5175 12.4842L14.3717 12.3501C15.2503 12.2185 15.1884 13.7952 14.4639 13.8393C13.594 13.8919 13.6697 13.8877 13.6489 13.8877C12.9848 13.8877 12.788 12.5987 13.5175 12.4842ZM14.4592 12.9061L13.6134 13.0282L13.6494 13.3252L14.4215 13.2785L14.4592 12.9061ZM13.4627 15.3603C12.7655 15.2059 12.9474 13.8787 13.6877 13.9664L14.5461 14.0716C15.3814 14.1729 14.9792 15.5417 14.345 15.5417C14.0465 15.5048 13.7515 15.4441 13.4627 15.3603ZM13.5836 14.811L14.3393 14.9775L14.4774 14.6296L13.6309 14.5157L13.5836 14.811ZM13.902 17.308L13.1719 17.0273C12.4949 16.7666 12.8923 15.4843 13.6022 15.6829L14.4347 15.9147C15.2759 16.1472 14.6085 17.5797 13.902 17.308ZM13.3733 16.5022L14.0958 16.7798L14.2842 16.4563L13.4641 16.2173L13.3733 16.5022Z" fill="#CD001A"/>
<path d="M7.96187 12.5177C7.27337 12.2806 7.64237 10.7416 8.44844 11.1075L9.23594 11.4647C9.88084 11.7578 9.41425 12.8026 8.88297 12.8026C8.76147 12.8026 8.76653 12.7942 7.96187 12.5177ZM8.15312 11.9887L8.87172 12.2455L9.00334 11.9769L8.23047 11.6121L8.15312 11.9887ZM7.75431 14.2359C7.02475 14.1914 6.97806 12.617 7.84712 12.7467L8.701 12.8808C9.43084 12.9956 9.23369 14.2843 8.56965 14.2843C8.54884 14.2843 8.6245 14.2885 7.75431 14.2359ZM7.79734 13.6751L8.5584 13.7302L8.61381 13.4369L7.77175 13.2914L7.79734 13.6751ZM7.67275 14.4679L8.53056 14.363C9.26294 14.2739 9.46431 15.5999 8.75584 15.7566L7.99225 15.9254C7.26015 16.0879 6.80481 14.5731 7.67275 14.4679ZM7.74925 15.0127L7.87947 15.3741L8.62647 15.2189L8.5989 14.921L7.74925 15.0127ZM7.42356 16.6271C7.55294 16.3216 7.73772 16.3239 8.61606 16.0795C9.32565 15.8798 9.72447 17.1629 9.04665 17.4239C8.25803 17.7268 8.25522 17.7411 8.11937 17.7411C7.62156 17.7411 7.28772 16.9466 7.42356 16.6271ZM7.94078 16.838L8.12359 17.1764L8.83881 16.9114L8.76709 16.6209L7.94078 16.838ZM12.8911 20.2695L13.7427 20.1188C14.6019 19.9621 14.5977 21.5478 13.8636 21.6058L13.084 21.6682C12.3865 21.718 12.1553 20.3989 12.8911 20.2695ZM13.8408 20.6726L12.9977 20.8112L13.039 21.1071L13.8102 21.0458L13.8408 20.6726ZM13.0553 23.3099C12.3353 23.2544 12.3421 21.912 13.0809 21.898L13.946 21.8803C14.7788 21.8592 14.6092 23.3698 13.8777 23.3698C13.8487 23.3698 13.9097 23.3737 13.0553 23.3099ZM13.1028 22.4501L13.0978 22.7488L13.869 22.8064L13.957 22.4428L13.1028 22.4501ZM8.75781 20.9249L9.62181 20.8869C10.3756 20.8531 10.4315 22.1984 9.73712 22.294C8.89506 22.4121 8.93837 22.4082 8.88606 22.4082C8.215 22.4082 7.91575 20.9617 8.75781 20.9249ZM8.79184 21.4739L8.89394 21.8445L9.6505 21.7481L9.64628 21.4488L8.79184 21.4739ZM8.94231 22.6889L9.79 22.5179C10.512 22.3699 10.816 23.6794 10.1216 23.8904L9.37319 24.1173C8.66387 24.3305 8.09603 22.8601 8.94259 22.6886L8.94231 22.6889ZM9.06072 23.2258L9.21878 23.5765L9.95144 23.3641L9.90081 23.0694L9.06072 23.2258Z" fill="#CD001A"/>
</g>
<defs>
<clipPath id="clip0_388_521">
<rect width="34" height="34" fill="white"/>
</clipPath>
</defs>
</svg>
