<svg width="34" height="33" viewBox="0 0 34 33" fill="none" xmlns="http://www.w3.org/2000/svg">
<g clip-path="url(#clip0_388_486)">
<g clip-path="url(#clip1_388_486)">
<path d="M29.0766 11.0666L17.9342 12.1971L17.2824 11.0681C17.6586 10.7348 17.9325 10.3017 18.0724 9.8189C18.2122 9.33615 18.2122 8.82363 18.0724 8.34087C17.9326 7.85811 17.6587 7.42492 17.2825 7.09163C16.9063 6.75833 16.4433 6.53861 15.9472 6.45798C15.4511 6.37735 14.9423 6.43912 14.4799 6.63612C14.0175 6.83312 13.6205 7.15726 13.335 7.57089C13.0495 7.98452 12.8872 8.47066 12.8669 8.97285C12.8467 9.47505 12.9693 9.97268 13.2206 10.4079C13.2911 10.53 13.4071 10.619 13.5432 10.6555C13.6793 10.6919 13.8243 10.6728 13.9463 10.6024C14.0684 10.5319 14.1574 10.4159 14.1939 10.2798C14.2303 10.1437 14.2112 9.99871 14.1408 9.87669C13.9832 9.60371 13.9101 9.29012 13.9307 8.97558C13.9513 8.66104 14.0647 8.35968 14.2566 8.1096C14.4485 7.85953 14.7102 7.67197 15.0087 7.57065C15.3072 7.46933 15.629 7.45879 15.9335 7.54037C16.238 7.62196 16.5114 7.792 16.7193 8.02899C16.9271 8.26598 17.06 8.55928 17.1011 8.87179C17.1423 9.18431 17.0898 9.50201 16.9504 9.78472C16.811 10.0674 16.5909 10.3024 16.3179 10.46C16.1959 10.5305 16.1068 10.6465 16.0704 10.7826C16.0339 10.9187 16.053 11.0637 16.1234 11.1857L17.0141 12.7284L10.4634 21.813C10.1235 22.2808 9.95677 22.8522 9.99159 23.4294C10.0264 24.0065 10.2606 24.5537 10.6542 24.9773C11.0098 25.3974 11.5006 25.6806 12.0424 25.7781C12.5841 25.8757 13.1428 25.7815 13.6226 25.5117L30.7007 15.6517C31.1742 15.3711 31.5351 14.9343 31.7215 14.4164C31.9079 13.8985 31.9081 13.3318 31.722 12.8138C31.5519 12.2611 31.1951 11.7847 30.7126 11.466C30.23 11.1473 29.6518 11.0061 29.0766 11.0666ZM30.713 13.1485C30.8246 13.4433 30.8263 13.7683 30.7176 14.0642C30.609 14.36 30.3974 14.6067 30.1216 14.7592L13.1066 24.5828C12.8384 24.7368 12.5241 24.7901 12.2201 24.733C11.9162 24.6759 11.6426 24.5123 11.4485 24.2715C11.2185 24.027 11.0805 23.7102 11.058 23.3752C11.0356 23.0402 11.1301 22.7079 11.3254 22.4348L17.9372 13.2647L29.1839 12.1236C29.5181 12.0908 29.8532 12.1751 30.1322 12.362C30.4111 12.5489 30.6161 12.827 30.713 13.1485Z" fill="#CD001A"/>
<path d="M22.8832 17.098L22.9315 17.0701C23.405 16.7894 23.766 16.3526 23.9524 15.8347C24.1388 15.3168 24.139 14.7502 23.9529 14.2321C23.894 14.0628 23.8184 13.8997 23.7271 13.7454L22.4757 13.8729C22.6913 14.0581 22.8531 14.298 22.9441 14.5674C23.0555 14.862 23.0571 15.1868 22.9485 15.4825C22.84 15.7782 22.6285 16.0248 22.3529 16.1773L13.4343 21.3264L12.1877 23.0559C12.1609 23.0917 12.1417 23.1325 12.1312 23.176C12.1206 23.2194 12.1189 23.2645 12.1262 23.3085L22.8832 17.098ZM8.97894 23.8987L5.33789 26.0009C5.06971 26.1549 4.75538 26.2081 4.45143 26.1511C4.14749 26.094 3.87387 25.9304 3.6798 25.6896C3.44979 25.4451 3.31179 25.1283 3.28934 24.7933C3.26689 24.4583 3.36139 24.126 3.5567 23.8529L10.168 14.683L14.6202 14.2313L15.4512 13.0792L10.1651 13.6155L9.51326 12.4865C9.88947 12.1532 10.1634 11.72 10.3033 11.2373C10.4431 10.7545 10.4431 10.242 10.3033 9.75923C10.1635 9.27646 9.88954 8.84328 9.51335 8.50999C9.13715 8.17669 8.67411 7.95697 8.17802 7.87634C7.68193 7.79571 7.17315 7.85748 6.71076 8.05448C6.24838 8.25148 5.85137 8.57561 5.56586 8.98924C5.28034 9.40287 5.11804 9.88902 5.0978 10.3912C5.07756 10.8934 5.20021 11.391 5.45151 11.8263C5.52195 11.9483 5.63799 12.0374 5.77408 12.0738C5.91018 12.1103 6.05519 12.0912 6.17721 12.0208C6.29923 11.9503 6.38826 11.8343 6.42473 11.6982C6.4612 11.5621 6.44211 11.4171 6.37166 11.2951C6.21405 11.0221 6.14093 10.7085 6.16155 10.3939C6.18216 10.0794 6.29559 9.77804 6.48748 9.52796C6.67937 9.27789 6.94111 9.09033 7.23959 8.98901C7.53808 8.88769 7.85991 8.87715 8.16438 8.95873C8.46885 9.04032 8.7423 9.21036 8.95013 9.44735C9.15797 9.68434 9.29086 9.97763 9.332 10.2902C9.37315 10.6027 9.32069 10.9204 9.18128 11.2031C9.04186 11.4858 8.82174 11.7208 8.54876 11.8784C8.42674 11.9489 8.3377 12.0649 8.30124 12.201C8.26477 12.3371 8.28386 12.4821 8.35431 12.6041L9.24495 14.1467L2.69421 23.2313C2.35447 23.6991 2.18774 24.2703 2.22251 24.8474C2.25728 25.4245 2.49139 25.9716 2.88483 26.3952C3.24037 26.8155 3.73122 27.0988 4.27299 27.1964C4.81477 27.294 5.37363 27.1998 5.8535 26.9301L9.3372 24.9188C9.16868 24.598 9.04798 24.2544 8.97894 23.8987Z" fill="#CD001A"/>
</g>
</g>
<defs>
<clipPath id="clip0_388_486">
<rect width="34" height="33" fill="white"/>
</clipPath>
<clipPath id="clip1_388_486">
<rect width="34" height="34" fill="white" transform="translate(-8 9.77759) rotate(-30)"/>
</clipPath>
</defs>
</svg>
