<svg width="34" height="34" viewBox="0 0 34 34" fill="none" xmlns="http://www.w3.org/2000/svg">
<path d="M19.1693 13.8301C20.8964 13.7962 22.4097 12.5903 22.8492 10.8974C22.8698 10.8181 22.8706 10.7349 22.8514 10.6551C22.8323 10.5754 22.7938 10.5016 22.7394 10.4403L20.5405 7.96069H20.7412C20.8738 7.96069 21.0009 7.90804 21.0946 7.81431C21.1883 7.72059 21.241 7.59347 21.241 7.46093C21.241 7.32838 21.1883 7.20126 21.0946 7.10754C21.0009 7.01381 20.8738 6.96116 20.7412 6.96116H5.93565V5.71174C5.93565 5.16062 6.38406 4.71221 6.93518 4.71221H17.93C18.1437 4.71156 18.3519 4.78002 18.5235 4.90737C18.6302 4.98477 18.7631 5.01692 18.8933 4.99683C19.0235 4.97673 19.1406 4.90601 19.2189 4.80006C19.2973 4.69411 19.3306 4.5615 19.3117 4.43109C19.2927 4.30069 19.2231 4.18304 19.1178 4.10374C18.772 3.84793 18.3612 3.71274 17.93 3.71274H6.93518C5.83288 3.71274 4.93611 4.60951 4.93611 5.71181V6.96122H4.12399C3.99144 6.96122 3.86433 7.01388 3.7706 7.1076C3.67688 7.20133 3.62422 7.32844 3.62422 7.46099C3.62422 7.59354 3.67688 7.72065 3.7706 7.81438C3.86433 7.9081 3.99144 7.96076 4.12399 7.96076H19.2046L21.8057 10.8939C21.3945 12.049 20.3031 12.8314 19.097 12.8314C17.9736 12.8314 16.9153 12.1256 16.452 11.0613C16.2735 10.6514 15.6846 10.6653 15.5263 11.084C15.0429 12.3628 13.7996 13.2219 12.4327 13.2219C11.0658 13.2219 9.82246 12.3628 9.33906 11.084C9.18076 10.6655 8.59197 10.6512 8.41336 11.0613C7.94271 12.1422 6.85659 12.8529 5.71569 12.8309C4.51999 12.8074 3.46174 12.0235 3.05961 10.8939L3.94457 9.89598C3.98812 9.84687 4.02157 9.78967 4.04301 9.72764C4.06445 9.66561 4.07346 9.59997 4.06953 9.53445C4.0656 9.46894 4.0488 9.40484 4.0201 9.34582C3.9914 9.2868 3.95135 9.23401 3.90225 9.19046C3.85315 9.14692 3.79595 9.11347 3.73392 9.09203C3.67189 9.07059 3.60624 9.06158 3.54073 9.06551C3.47521 9.06944 3.41112 9.08623 3.3521 9.11494C3.29307 9.14364 3.24028 9.18368 3.19674 9.23279L2.12586 10.4403C2.07145 10.5017 2.03298 10.5755 2.01382 10.6552C1.99467 10.7349 1.99543 10.8181 2.01604 10.8975C2.2633 11.8498 2.8504 12.6481 3.62422 13.1702V27.2017C3.62422 28.8551 4.96935 30.2003 6.62282 30.2003H18.2424C19.8959 30.2003 21.241 28.8551 21.241 27.2017V15.1811C21.241 15.0485 21.1883 14.9214 21.0946 14.8277C21.0009 14.734 20.8738 14.6813 20.7412 14.6813C20.6087 14.6813 20.4816 14.734 20.3878 14.8277C20.2941 14.9214 20.2415 15.0485 20.2415 15.1811V27.2017C20.2415 28.3039 19.3447 29.2007 18.2424 29.2007H6.62282C5.52053 29.2007 4.62376 28.3039 4.62376 27.2017V13.6533C6.17672 14.1444 7.85213 13.5969 8.8431 12.2919C9.63048 13.4741 10.9777 14.2213 12.4326 14.2213C13.8876 14.2213 15.2347 13.4741 16.0221 12.2919C16.7658 13.2713 17.9216 13.8544 19.1693 13.8301Z" fill="#CD001A"/>
<path d="M31.8735 11.9652L29.2994 9.06698V7.65064C29.2994 6.61593 28.4576 5.77414 27.4229 5.77414H23.4715C23.3389 5.77414 23.2118 5.82679 23.1181 5.92052C23.0243 6.01424 22.9717 6.14136 22.9717 6.27391C22.9717 6.40645 23.0243 6.53357 23.1181 6.62729C23.2118 6.72102 23.3389 6.77367 23.4715 6.77367H27.4229C27.9064 6.77367 28.2998 7.16705 28.2998 7.65064V9.25683C28.2998 9.37917 28.3447 9.49727 28.426 9.58873L30.939 12.4182C30.5687 13.4273 29.6165 14.1257 28.5417 14.1468C27.5013 14.1667 26.5227 13.5197 26.0982 12.5462C25.9186 12.1345 25.3305 12.152 25.1728 12.569C24.8267 13.483 24.0522 14.1727 23.1009 14.414C23.0373 14.4302 22.9775 14.4587 22.9249 14.4979C22.8723 14.5372 22.8279 14.5864 22.7943 14.6428C22.7608 14.6992 22.7386 14.7617 22.7292 14.8266C22.7197 14.8916 22.7232 14.9577 22.7393 15.0214C22.7555 15.085 22.784 15.1448 22.8232 15.1974C22.8625 15.25 22.9117 15.2943 22.9681 15.3279C23.0245 15.3615 23.087 15.3836 23.1519 15.3931C23.2169 15.4025 23.283 15.399 23.3466 15.3829C24.2921 15.1432 25.1178 14.5672 25.6691 13.7626C26.5762 14.9182 28.0763 15.4165 29.4869 15.0033V27.4078C29.4869 28.3964 28.6826 29.2007 27.694 29.2007H22.3651C22.2326 29.2007 22.1054 29.2534 22.0117 29.3471C21.918 29.4408 21.8653 29.5679 21.8653 29.7005C21.8653 29.833 21.918 29.9601 22.0117 30.0539C22.1054 30.1476 22.2326 30.2002 22.3651 30.2002H27.6939C29.2336 30.2002 30.4863 28.9476 30.4863 27.4078V14.5344C31.2067 14.0495 31.7533 13.3078 31.9835 12.4228C32.0042 12.3434 32.005 12.2601 31.9858 12.1803C31.9666 12.1004 31.928 12.0266 31.8735 11.9652ZM7.93434 17.019C7.80179 17.019 7.67467 17.0716 7.58095 17.1653C7.48722 17.2591 7.43457 17.3862 7.43457 17.5187V24.5155C7.43457 25.6178 8.33134 26.5145 9.43364 26.5145H15.4308C16.5331 26.5145 17.4299 25.6178 17.4299 24.5155V17.5187C17.4299 16.4164 16.5331 15.5197 15.4308 15.5197H10.6629C10.5304 15.5197 10.4033 15.5723 10.3096 15.666C10.2158 15.7598 10.1632 15.8869 10.1632 16.0194C10.1632 16.152 10.2158 16.2791 10.3096 16.3728C10.4033 16.4665 10.5304 16.5192 10.6629 16.5192H15.4308C15.982 16.5192 16.4304 16.9676 16.4304 17.5187V24.5155C16.4304 25.0666 15.982 25.515 15.4308 25.515H9.43364C8.88252 25.515 8.4341 25.0666 8.4341 24.5155V17.5187C8.4341 17.3862 8.38145 17.2591 8.28773 17.1653C8.194 17.0716 8.06688 17.019 7.93434 17.019Z" fill="#CD001A"/>
</svg>
