<svg width="34" height="34" viewBox="0 0 34 34" fill="none" xmlns="http://www.w3.org/2000/svg">
<g clip-path="url(#clip0_388_461)">
<path d="M31.9535 5.95274C31.5999 5.47943 31.0729 5.16584 30.4882 5.08088C29.9035 4.99591 29.309 5.14652 28.8353 5.49961C22.7762 10.057 22.9813 9.9297 22.9813 9.9297C19.3033 12.7755 16.2283 16.3247 13.9356 20.3706L5.54717 16.7794C5.42666 16.7278 5.29058 16.7262 5.16888 16.7749C5.04718 16.8236 4.94982 16.9187 4.89822 17.0393L4.12007 18.8569C3.55252 20.1826 3.53485 21.6794 4.07094 23.0182C4.60702 24.3569 5.65296 25.4278 6.97865 25.9953L8.49184 26.6432C9.81752 27.2107 11.3144 27.2284 12.6531 26.6923C13.9918 26.1562 15.0627 25.1103 15.6303 23.7846L16.3929 22.0033L17.301 20.5478C19.4344 17.1219 23.969 12.9227 24.9794 12.4089L31.4361 9.10798C31.4621 9.09626 31.4865 9.08143 31.5088 9.06381C31.9799 8.70988 32.2912 8.18352 32.3746 7.60025C32.458 7.01698 32.3065 6.42447 31.9535 5.95274ZM14.7215 23.3955C14.2571 24.4802 13.3809 25.3359 12.2856 25.7745C11.1903 26.2132 9.96557 26.1987 8.88091 25.7343L7.36773 25.0865C6.28307 24.6222 5.42731 23.746 4.98869 22.6506C4.55007 21.5553 4.56453 20.3306 5.02889 19.246L5.61251 17.8827L15.3051 22.0323L14.7215 23.3955ZM16.4596 20.0263L15.7578 21.1507L14.849 20.7616C17.0034 16.9574 19.8823 13.6121 23.3231 10.9148L24.0478 11.8596C21.1063 14.1676 18.5457 16.9234 16.4596 20.0263ZM30.9445 8.24688L24.8985 11.3419L24.0965 10.2888L29.436 6.29447C29.6963 6.11665 30.0147 6.04503 30.326 6.09427C30.6374 6.1435 30.9182 6.30986 31.1109 6.55931C31.3036 6.80876 31.3938 7.12244 31.3628 7.43615C31.3319 7.74986 31.1822 8.03988 30.9445 8.24688Z" fill="#CD001A"/>
</g>
<defs>
<clipPath id="clip0_388_461">
<rect width="34" height="34" fill="white"/>
</clipPath>
</defs>
</svg>
