<svg width="34" height="34" viewBox="0 0 34 34" fill="none" xmlns="http://www.w3.org/2000/svg">
<path d="M25.1739 7.30107V7.30107C24.7599 6.5018 23.9349 6 23.0348 6L20.5 6L5.95652 6.00001C4.32368 6.00001 3 7.32369 3 8.95653L3 11.2042L3 27.5L3 30.5M25.1739 18.5L25.1739 29.2721C25.1739 30.905 23.8502 32.2287 22.2174 32.2287L19.6072 32.2287L14.0406 32.2287L8.65945 32.2287L5.66457 32.2287" stroke="#CD001A" stroke-width="1.03478"/>
<path d="M17 8H11C10.4477 8 10 8.44772 10 9C10 9.55228 10.4477 10 11 10H17C17.5523 10 18 9.55228 18 9C18 8.44772 17.5523 8 17 8Z" stroke="#CD001A"/>
<path d="M16.9119 26.8512L11.2922 21.2315L30.961 1.5627V1.56289C30.961 1.5627 32.0147 11.7483 23.234 20.5291L16.9119 26.8512Z" stroke="#CD001A" stroke-miterlimit="10" stroke-linecap="round" stroke-linejoin="round"/>
<path d="M11.2922 21.2315L3.62554 28.8982C2.89178 29.632 2.77297 30.8237 3.43381 31.6238C4.19186 32.5417 5.55358 32.5898 6.37505 31.7684C6.78056 31.3628 6.96913 30.8267 6.9485 30.2959C6.9371 30.0012 7.02649 29.712 7.23494 29.5036L11.9947 24.7438" stroke="#CD001A" stroke-miterlimit="10" stroke-linecap="round" stroke-linejoin="round"/>
<path d="M16.9124 24.0415L21.8296 19.1243C27.7921 13.1617 28.857 6.59893 29.0007 3.52289" stroke="#CD001A" stroke-miterlimit="10" stroke-linecap="round" stroke-linejoin="round"/>
</svg>
