<svg width="34" height="34" viewBox="0 0 34 34" fill="none" xmlns="http://www.w3.org/2000/svg">
<g clip-path="url(#clip0_388_516)">
<path d="M27.8578 25.4608C27.7935 25.3002 27.7515 24.791 27.7173 24.3771C27.6434 23.4789 27.5419 22.2487 27.1127 21.1392C26.9272 20.6588 26.5413 19.7475 26.1681 18.8664C25.7543 17.8885 25.2389 16.6714 25.182 16.4649C24.9641 15.6752 24.734 14.7342 24.5113 13.8242C24.1268 12.2535 23.7636 10.77 23.4395 9.91073C23.1446 9.12805 22.8401 8.71723 22.4533 8.57855C22.0666 8.43942 21.7428 8.62536 21.6365 8.68704C20.9418 9.08692 21.0533 10.4707 21.3106 12.8818C21.3723 13.4584 21.4532 14.2184 21.4746 14.7757C21.2489 14.2897 20.9444 13.51 20.5883 12.3857C19.691 9.5498 19.1966 8.5593 18.5548 8.30992C18.3776 8.24123 18.0998 8.19748 17.7817 8.3808C16.593 9.06461 17.0065 10.3189 17.8303 12.8179C17.9812 13.272 17.9913 13.3175 18.2844 14.179C18.4734 14.735 18.7083 15.4254 18.8282 15.9097C18.3596 15.2771 17.6653 14.049 17.2221 13.2795C16.8721 12.6757 16.576 12.1551 16.3218 11.7093C15.2521 9.83155 14.9292 9.26455 14.4003 9.12061C14.0866 9.03617 13.8184 9.15561 13.6206 9.26936C13.3026 9.45223 13.1 9.7003 13.0178 10.0074C12.8034 10.808 13.4045 11.9622 14.9327 14.5999C15.5229 15.6188 16.0265 16.6872 16.289 17.3522C15.8427 16.9444 15.2263 16.1897 14.8089 15.6787C13.5485 14.1357 12.5523 12.9177 11.6886 13.4151C11.3964 13.5831 11.1982 13.8347 11.1155 14.1431C11.0031 14.5627 11.1072 15.0531 11.4253 15.6009C11.6055 15.9124 12.1209 16.587 12.8336 17.5206C13.9142 18.9355 16.0549 21.7385 16.4303 22.7382C16.0356 22.5742 15.3278 22.0614 14.8273 21.6992C13.5148 20.7485 12.159 19.765 11.2433 20.2917C10.8136 20.5389 10.5525 20.857 10.4676 21.2372C10.1959 22.449 11.2398 22.4276 13.6303 24.6637C14.6628 25.6266 15.6235 26.6311 17.4186 27.7467C19.0728 28.7744 21.1623 29.0942 21.4186 29.3108C21.6593 29.7264 21.8334 30.2567 21.8356 30.2619C22.0145 30.8119 22.8475 30.545 22.6677 29.9911C22.6594 29.9657 22.4643 29.3694 22.176 28.8715C21.7638 28.1606 19.7474 28.1632 17.8806 27.003C16.2181 25.9696 15.2726 24.9992 14.2279 24.0236C13.3861 23.2365 11.7245 21.9477 11.3496 21.6589C11.3157 21.5849 11.3062 21.502 11.3225 21.4222C11.3618 21.2617 11.5386 21.1309 11.6795 21.0499C12.103 20.8062 13.4868 21.8085 14.3136 22.4079C15.5321 23.2908 16.4128 23.9295 17.0506 23.5612C17.2051 23.4724 17.3101 23.3232 17.3464 23.1407C17.503 22.3607 16.2955 20.6129 13.5288 16.9904C12.8878 16.1512 12.3344 15.4263 12.1817 15.1629C11.9931 14.8379 11.9126 14.5495 11.9608 14.3706C11.9799 14.2938 12.0278 14.2272 12.0946 14.1847C12.4573 14.1847 13.5463 15.5177 14.1316 16.2339C15.3409 17.7144 16.2968 18.8825 17.1123 18.4131C17.213 18.3554 17.3075 18.228 17.3376 18.1156C17.5293 17.402 15.7093 14.1952 15.6905 14.1628C14.5376 12.173 13.7318 10.7267 13.8639 10.2354C13.8735 10.199 13.8936 10.1238 14.0581 10.0293C14.1373 9.98379 14.1741 9.97198 14.1736 9.96761C14.3762 10.0612 14.875 10.9362 15.5627 12.1437C15.8178 12.5913 16.1148 13.1132 16.4661 13.7196C17.6898 15.8017 18.5661 17.5972 19.4376 17.0967C20.0768 16.7287 19.7351 15.7234 19.1143 13.8985C18.7845 12.9282 18.8641 13.1509 18.6628 12.5449C17.8924 10.2078 17.6745 9.45398 18.2371 9.1263C19.0706 9.36342 20.2794 15.7242 21.476 16.1889C21.6391 16.2527 21.8111 16.2405 21.9576 16.1556C22.4848 15.8529 22.4074 14.9052 22.1821 12.7912C22.0683 11.7264 21.857 9.74492 22.0736 9.44742C22.1318 9.41417 22.1598 9.40717 22.1606 9.40498C22.1812 9.41505 22.3584 9.52267 22.6218 10.2218C22.9271 11.0316 23.3012 12.558 23.6621 14.0342C23.8866 14.9503 24.118 15.8975 24.3394 16.6999C24.4072 16.9444 24.7712 17.8111 25.3631 19.2094C25.7337 20.0844 26.1165 20.9891 26.2972 21.4568C26.6809 22.4486 26.7723 23.559 26.8458 24.451C26.8778 24.8391 26.9211 25.7137 27.1573 25.9889L29.7915 29.0969C29.8665 29.1853 29.9736 29.2404 30.0892 29.2499C30.2048 29.2594 30.3195 29.2226 30.408 29.1476C30.4964 29.0726 30.5515 28.9655 30.561 28.8499C30.5705 28.7343 30.5337 28.6196 30.4587 28.5312L27.8578 25.4608ZM16.9671 28.4336C14.7603 29.1284 12.8511 29.575 11.7158 29.6691C11.6615 29.0566 11.5801 28.4489 11.4721 27.857C11.4476 27.7463 11.3812 27.6494 11.2867 27.5867C11.1923 27.524 11.0772 27.5003 10.9657 27.5207C10.8541 27.5411 10.7549 27.604 10.6888 27.6961C10.6226 27.7881 10.5948 27.9023 10.6111 28.0145C10.7384 28.7105 10.8272 29.4307 10.8753 30.1543C10.8911 30.384 11.0823 30.5625 11.3124 30.5625C12.46 30.5625 14.6168 30.0909 17.23 29.2684C17.3365 29.2301 17.424 29.1521 17.4743 29.0508C17.5245 28.9494 17.5336 28.8325 17.4996 28.7246C17.4657 28.6167 17.3912 28.5262 17.292 28.4719C17.1927 28.4177 17.0763 28.4039 16.9671 28.4336Z" fill="#CD001A"/>
<path d="M29.5168 20.2974C28.4283 18.9075 27.8289 18.1419 27.0431 15.5602C26.7653 14.6462 26.4713 13.3123 26.1603 11.9001C25.4428 8.64199 24.6295 4.94949 23.4556 3.5893C23.3833 3.50549 23.2818 3.45224 23.1717 3.44031C23.0616 3.42837 22.9511 3.45864 22.8624 3.52499C21.0997 4.84712 19.0041 5.23868 16.9776 5.61755C15.4345 5.90587 13.8385 6.20424 12.3965 6.90905C11.5714 7.31243 10.4811 8.14893 9.21895 9.11712C7.42739 10.4917 5.39651 12.0497 3.72658 12.6504C3.63713 12.6826 3.56061 12.743 3.50859 12.8226C3.45657 12.9022 3.43188 12.9965 3.43826 13.0914C3.5647 14.9595 4.7582 16.6482 6.14026 18.6034C7.40114 20.3876 8.83001 22.4092 9.79558 25.0281C9.99595 25.5702 10.818 25.2722 10.6168 24.7258C9.61139 21.9984 8.14664 19.9264 6.8547 18.0986C5.63364 16.3709 4.56876 14.8637 4.3452 13.3491C6.06764 12.6377 8.01845 11.141 9.75139 9.81143C10.9252 8.91062 12.0343 8.06012 12.7806 7.69524C14.1155 7.04249 15.5837 6.76818 17.1377 6.47768C19.1323 6.10493 21.1898 5.72037 23.0273 4.48049C23.9483 5.92512 24.6955 9.3188 25.3054 12.0882C25.6204 13.5179 25.9175 14.8681 26.2058 15.8148C27.0383 18.5531 27.7116 19.4128 28.8273 20.8369C29.0605 21.1348 29.3138 21.4581 29.5938 21.8317C29.3308 22.2076 28.9428 22.607 28.4361 23.0231C28.3494 23.0975 28.2953 23.203 28.2854 23.3169C28.2754 23.4308 28.3104 23.544 28.3829 23.6324C28.4554 23.7208 28.5596 23.7773 28.6732 23.7898C28.7869 23.8023 28.9009 23.7699 28.9909 23.6994C29.6883 23.1272 30.1975 22.5654 30.5038 22.0295C30.5458 21.9559 30.5656 21.8718 30.5607 21.7872C30.5558 21.7026 30.5264 21.6213 30.4762 21.5531C30.1196 21.0674 29.8033 20.6636 29.5168 20.2974ZM10.1626 26.2186L8.49795 25.5531C8.38807 25.509 8.28824 25.4432 8.20449 25.3595C8.12073 25.2758 8.05477 25.176 8.01058 25.0662L7.34383 23.4002C7.31107 23.3193 7.25493 23.2501 7.18259 23.2013C7.11025 23.1525 7.025 23.1264 6.93776 23.1264C6.85051 23.1263 6.76523 23.1523 6.69284 23.201C6.62045 23.2497 6.56423 23.3189 6.53139 23.3997L5.8642 25.0662C5.82001 25.176 5.75405 25.2758 5.67029 25.3595C5.58653 25.4432 5.48671 25.509 5.37683 25.5531L3.71258 26.2186C3.63123 26.2509 3.56146 26.3069 3.51229 26.3794C3.46312 26.4518 3.43681 26.5373 3.43677 26.6248C3.43672 26.7124 3.46294 26.7979 3.51203 26.8704C3.56112 26.9429 3.63083 26.999 3.71214 27.0314L5.37683 27.6969C5.5982 27.7852 5.77583 27.9629 5.8642 28.1838L6.53095 29.8498C6.56371 29.9307 6.61985 29.9999 6.69219 30.0487C6.76453 30.0975 6.84978 30.1236 6.93702 30.1236C7.02427 30.1236 7.10955 30.0977 7.18194 30.049C7.25433 30.0003 7.31055 29.9311 7.34339 29.8502L8.01058 28.1838C8.05477 28.074 8.12073 27.9742 8.20449 27.8905C8.28824 27.8068 8.38807 27.741 8.49795 27.6969L10.1622 27.0314C10.2435 26.9991 10.3133 26.9431 10.3625 26.8706C10.4117 26.7982 10.438 26.7127 10.438 26.6251C10.4381 26.5376 10.4118 26.4521 10.3627 26.3796C10.3137 26.3071 10.244 26.251 10.1626 26.2186ZM8.17333 26.8844C7.95345 26.9726 7.7537 27.1044 7.58611 27.2719C7.41852 27.4393 7.28654 27.6389 7.19814 27.8587L6.93739 28.5102L6.67664 27.8592C6.5884 27.6393 6.45654 27.4396 6.28901 27.2721C6.12149 27.1045 5.92176 26.9727 5.70189 26.8844L5.05308 26.625L5.70145 26.3656C5.92137 26.2774 6.12115 26.1456 6.28875 25.9782C6.45635 25.8107 6.5883 25.6111 6.67664 25.3912L6.93739 24.7398L7.19814 25.3908C7.28647 25.6107 7.41841 25.8104 7.58601 25.9779C7.75361 26.1455 7.9534 26.2773 8.17333 26.3656L8.8217 26.625L8.17333 26.8844ZM25.5876 6.46893L26.7763 6.94405C26.9031 6.9948 27.0042 7.09587 27.055 7.2223L27.531 8.4123C27.5637 8.49317 27.6198 8.56242 27.6922 8.6112C27.7645 8.65997 27.8498 8.68605 27.937 8.6861C28.0243 8.68614 28.1095 8.66016 28.1819 8.61146C28.2543 8.56276 28.3105 8.49357 28.3434 8.41274L28.8198 7.22274C28.845 7.15987 28.8826 7.10278 28.9305 7.05494C28.9785 7.00711 29.0356 6.96953 29.0985 6.94449L30.2872 6.46937C30.3681 6.43654 30.4375 6.38031 30.4863 6.30787C30.5351 6.23542 30.5611 6.15006 30.5611 6.06271C30.5611 5.97536 30.5351 5.89 30.4863 5.81755C30.4375 5.74511 30.3681 5.68887 30.2872 5.65605L29.0985 5.18093C29.0357 5.15574 28.9786 5.1181 28.9307 5.07028C28.8828 5.02247 28.8451 4.96545 28.8198 4.90268L28.3438 3.71268C28.3111 3.63181 28.2549 3.56256 28.1826 3.51379C28.1103 3.46501 28.025 3.43893 27.9378 3.43888C27.8505 3.43884 27.7652 3.46482 27.6928 3.51352C27.6204 3.56222 27.5642 3.63141 27.5314 3.71224L27.055 4.90224C27.0298 4.96511 26.9921 5.0222 26.9442 5.07004C26.8963 5.11787 26.8392 5.15546 26.7763 5.18049L25.5876 5.65562C25.5066 5.68844 25.4373 5.74467 25.3885 5.81712C25.3397 5.88956 25.3136 5.97492 25.3136 6.06227C25.3136 6.14962 25.3397 6.23498 25.3885 6.30743C25.4373 6.37987 25.5066 6.43611 25.5876 6.46893ZM27.1009 5.99337C27.7668 5.72737 27.8963 5.11968 27.9374 5.05274C27.9698 5.10612 28.1028 5.72562 28.7739 5.99337L28.9463 6.06249L28.7735 6.13162C28.1076 6.39762 27.9781 7.0053 27.9374 7.07224C27.905 7.01887 27.772 6.39937 27.1009 6.13162L26.9285 6.06249L27.1009 5.99337ZM3.71258 6.90643L5.13926 7.47693C5.31295 7.54649 5.45295 7.68605 5.52251 7.85974L6.09389 9.28774C6.12643 9.36879 6.18249 9.43825 6.25485 9.48717C6.3272 9.53609 6.41255 9.56224 6.49989 9.56224C6.58723 9.56224 6.67258 9.53609 6.74493 9.48717C6.81729 9.43825 6.87335 9.36879 6.90589 9.28774L7.47726 7.85974C7.54683 7.68562 7.68683 7.54605 7.86051 7.47693L9.2872 6.90643C9.36853 6.87403 9.43827 6.81798 9.4874 6.74552C9.53653 6.67306 9.56279 6.58753 9.56279 6.49999C9.56279 6.41245 9.53653 6.32692 9.4874 6.25446C9.43827 6.182 9.36853 6.12595 9.2872 6.09355L7.86051 5.52349C7.77416 5.48875 7.69571 5.43694 7.62986 5.37116C7.564 5.30538 7.5121 5.22699 7.47726 5.14068L6.90589 3.71224C6.87335 3.63119 6.81729 3.56173 6.74493 3.51281C6.67258 3.46389 6.58723 3.43774 6.49989 3.43774C6.41255 3.43774 6.3272 3.46389 6.25485 3.51281C6.18249 3.56173 6.12643 3.63119 6.09389 3.71224L5.52251 5.14024C5.45251 5.31437 5.31295 5.45393 5.13926 5.52349L3.71258 6.09355C3.63125 6.12595 3.56151 6.182 3.51238 6.25446C3.46325 6.32692 3.43699 6.41245 3.43699 6.49999C3.43699 6.58753 3.46325 6.67306 3.51238 6.74552C3.56151 6.81798 3.63125 6.87403 3.71258 6.90643ZM5.46389 6.33593C5.66013 6.25698 5.83839 6.13921 5.988 5.98968C6.13761 5.84015 6.25547 5.66194 6.33451 5.46574L6.49989 5.05274L6.66526 5.46574C6.74431 5.66194 6.86217 5.84015 7.01178 5.98968C7.16138 6.13921 7.33965 6.25698 7.53589 6.33593L7.94626 6.49999L7.53589 6.66405C7.33965 6.743 7.16138 6.86077 7.01178 7.0103C6.86217 7.15983 6.74431 7.33804 6.66526 7.53424L6.49989 7.94724L6.33451 7.53424C6.25547 7.33804 6.13761 7.15983 5.988 7.0103C5.83839 6.86077 5.66013 6.743 5.46389 6.66405L5.05351 6.49999L5.46389 6.33593Z" fill="#CD001A"/>
</g>
<defs>
<clipPath id="clip0_388_516">
<rect width="28" height="28" fill="white" transform="translate(3 3)"/>
</clipPath>
</defs>
</svg>
