<svg width="34" height="34" viewBox="0 0 34 34" fill="none" xmlns="http://www.w3.org/2000/svg">
<path d="M26.547 30H7.45322C6.2751 30 5.38135 29.1063 5.38135 27.9281V9.89062C5.38135 9.64687 5.54385 9.48438 5.7876 9.48438H28.2126C28.4563 9.48438 28.6188 9.64687 28.6188 9.89062V27.9281C28.6188 29.1063 27.7251 30 26.547 30ZM6.19385 10.2969V27.9281C6.19385 28.6188 6.7626 29.1875 7.45322 29.1875H26.547C27.2376 29.1875 27.8063 28.6188 27.8063 27.9281V10.2969H6.19385Z" fill="#CD001A"/>
<path d="M28.2126 10.2969C28.1313 10.2969 28.0907 10.2969 28.0501 10.2562H5.7876C5.54385 10.2562 5.38135 10.0937 5.38135 9.85V6.07187C5.38135 4.89375 6.2751 4 7.45322 4H26.547C27.7251 4 28.6188 4.89375 28.6188 6.07187V9.89062C28.6188 10.1344 28.4563 10.2969 28.2126 10.2969ZM6.19385 9.44375H27.8063V6.07187C27.8063 5.38125 27.2376 4.8125 26.547 4.8125H7.45322C6.7626 4.8125 6.19385 5.38125 6.19385 6.07187V9.44375Z" fill="#CD001A"/>
<path d="M17.0001 27.4406C12.7751 27.4406 9.32202 23.9875 9.32202 19.7625C9.32202 15.5375 12.7751 12.0844 17.0001 12.0844C19.7626 12.0844 22.2408 13.5063 23.622 15.8625C23.7439 16.0656 23.6626 16.3094 23.4595 16.4313C23.2564 16.5531 23.0126 16.4719 22.8908 16.2688C21.672 14.1563 19.4376 12.8969 17.0001 12.8969C13.222 12.8969 10.1345 15.9844 10.1345 19.7625C10.1345 23.5406 13.222 26.6281 17.0001 26.6281C19.4376 26.6281 21.672 25.3281 22.8908 23.2563C23.0126 23.0531 23.2564 23.0125 23.4595 23.0938C23.6626 23.2156 23.7033 23.4594 23.622 23.6625C22.2408 25.9781 19.722 27.4406 17.0001 27.4406Z" fill="#CD001A"/>
<path d="M17 25.3281C13.9125 25.3281 11.3938 22.8094 11.3938 19.7219C11.3938 16.6344 13.9125 14.1562 17 14.1562C20.0875 14.1562 22.6063 16.675 22.6063 19.7625C22.6063 22.85 20.0875 25.3281 17 25.3281ZM17 14.9688C14.3594 14.9688 12.2063 17.0813 12.2063 19.7219C12.2063 22.3625 14.3594 24.5156 17 24.5156C19.6407 24.5156 21.7938 22.4031 21.7938 19.7625C21.7938 17.1219 19.6407 14.9688 17 14.9688Z" fill="#CD001A"/>
<path d="M25.7346 22.4844H24.4752C23.7846 22.4844 23.2158 21.9156 23.2158 21.225V18.2188C23.2158 17.5281 23.7846 16.9594 24.4752 16.9594H25.7346C26.4658 17 26.9939 17.5688 26.9939 18.2188V21.225C26.9939 21.9156 26.4252 22.4844 25.7346 22.4844ZM25.6939 17.7719H24.4752C24.1908 17.7719 24.0283 18.0156 24.0283 18.2188V21.225C24.0283 21.5094 24.2721 21.6719 24.4752 21.6719H25.7346C26.0189 21.6719 26.1814 21.4281 26.1814 21.225V18.2188C26.1814 17.975 25.9783 17.8125 25.6939 17.7719Z" fill="#CD001A"/>
<path d="M8.91577 8.34686C8.22515 8.34686 7.69702 7.81874 7.69702 7.12811C7.69702 6.43749 8.22515 5.90936 8.91577 5.90936C9.6064 5.90936 10.1345 6.43749 10.1345 7.12811C10.1345 7.81874 9.6064 8.34686 8.91577 8.34686ZM8.91577 6.72186C8.67202 6.72186 8.50952 6.88436 8.50952 7.12811C8.50952 7.37186 8.67202 7.53436 8.91577 7.53436C9.15952 7.53436 9.32202 7.37186 9.32202 7.12811C9.32202 6.88436 9.15952 6.72186 8.91577 6.72186Z" fill="#CD001A"/>
<path d="M11.8 8.34686C11.1094 8.34686 10.5813 7.81874 10.5813 7.12811C10.5813 6.43749 11.1094 5.90936 11.8 5.90936C12.4907 5.90936 13.0188 6.43749 13.0188 7.12811C13.0188 7.81874 12.4907 8.34686 11.8 8.34686ZM11.8 6.72186C11.5563 6.72186 11.3938 6.88436 11.3938 7.12811C11.3938 7.37186 11.5563 7.53436 11.8 7.53436C12.0438 7.53436 12.2063 7.37186 12.2063 7.12811C12.2063 6.88436 12.0438 6.72186 11.8 6.72186Z" fill="#CD001A"/>
<path d="M14.7251 8.34686C14.0345 8.34686 13.5063 7.81874 13.5063 7.12811C13.5063 6.43749 14.0345 5.90936 14.7251 5.90936C15.4157 5.90936 15.9438 6.43749 15.9438 7.12811C15.9438 7.81874 15.4157 8.34686 14.7251 8.34686ZM14.7251 6.72186C14.4813 6.72186 14.3188 6.88436 14.3188 7.12811C14.3188 7.37186 14.4813 7.53436 14.7251 7.53436C14.9688 7.53436 15.1313 7.37186 15.1313 7.12811C15.1313 6.88436 14.9688 6.72186 14.7251 6.72186Z" fill="#CD001A"/>
<path d="M25.897 7.53436H25.1658C24.922 7.53436 24.7595 7.37186 24.7595 7.12811C24.7595 6.88436 24.922 6.72186 25.1658 6.72186H25.897C26.1408 6.72186 26.3033 6.88436 26.3033 7.12811C26.3033 7.37186 26.1408 7.53436 25.897 7.53436Z" fill="#CD001A"/>
<path d="M24.0689 7.53436H23.3376C23.0939 7.53436 22.9314 7.37186 22.9314 7.12811C22.9314 6.88436 23.0939 6.72186 23.3376 6.72186H24.0689C24.3126 6.72186 24.4751 6.88436 24.4751 7.12811C24.4751 7.37186 24.3126 7.53436 24.0689 7.53436Z" fill="#CD001A"/>
<path d="M22.2409 7.53436H21.469C21.2252 7.53436 21.0627 7.37186 21.0627 7.12811C21.0627 6.88436 21.2252 6.72186 21.469 6.72186H22.2409C22.4846 6.72186 22.6471 6.88436 22.6471 7.12811C22.6471 7.37186 22.4846 7.53436 22.2409 7.53436Z" fill="#CD001A"/>
</svg>
