<svg width="270" height="85" viewBox="0 0 270 85" fill="none" xmlns="http://www.w3.org/2000/svg">
<path d="M113.401 57.2112C111.378 57.3193 109.182 57.2941 106.825 57.1313C104.463 56.9685 103.284 55.6439 103.284 53.1559V29.2917H106.594C107.39 29.2917 108.095 29.5611 108.711 30.1043C109.322 30.643 109.628 31.2942 109.628 32.0505V35.7033H113.401V36.8399C113.401 37.651 113.093 38.3155 112.485 38.8247C111.869 39.3397 111.129 39.6002 110.276 39.6002H109.628V52.2072C109.628 53.1293 110.238 53.5881 111.467 53.5881H113.401V57.2112Z" fill="white"/>
<path d="M125.539 57.2112C123.516 57.3193 121.323 57.2941 118.963 57.1313C116.599 56.9685 115.418 55.6439 115.418 53.1559V29.2917H118.732C119.528 29.2917 120.234 29.5611 120.846 30.1043C121.461 30.643 121.766 31.2942 121.766 32.0505V35.7033H125.54V36.8399C125.54 37.651 125.234 38.3155 124.624 38.8247C124.011 39.3397 123.271 39.6002 122.412 39.6002H121.766V52.2072C121.766 53.1293 122.381 53.5881 123.607 53.5881H125.54L125.539 57.2112Z" fill="white"/>
<path d="M127.712 57.276V46.8047C127.712 44.6927 128.065 42.9211 128.772 41.4899C129.475 40.0542 130.44 38.9057 131.667 38.0384C132.833 37.2259 134.197 36.6309 135.764 36.2491C137.328 35.8731 138.939 35.6807 140.592 35.6807H141.054H141.515V39.3409C141.515 39.3409 140.72 39.3349 139.098 39.5925C137.283 39.8811 136.278 40.5293 135.469 41.6113C134.459 42.9625 134.154 44.5551 134.154 46.1787V57.276H127.712Z" fill="white"/>
<path d="M143.887 35.6831H147.196C148.055 35.6831 148.791 35.9524 149.403 36.4971C150.016 37.0388 150.322 37.6885 150.322 38.4419V57.2754H143.887V35.6831Z" fill="white"/>
<path d="M158.779 31.6222V38.1181C159.454 37.0894 160.435 36.2488 161.721 35.599C162.825 35.0603 164.174 34.788 165.768 34.788C168.653 34.788 171.016 35.8433 172.852 37.9538C174.695 40.0643 175.611 42.798 175.611 46.1532C175.611 49.5085 174.695 52.2421 172.852 54.3527C171.935 55.3798 170.693 56.1243 169.129 56.5875C167.563 57.0449 166.016 57.2757 164.479 57.2757C161.537 57.2757 158.808 56.5994 156.294 55.2451C153.779 53.8924 152.52 51.2949 152.52 47.4527V28.8634H155.65C156.507 28.8634 157.247 29.1357 157.86 29.6759C158.473 30.2176 158.779 30.8673 158.779 31.6222ZM169.265 45.912C169.265 43.9642 168.809 41.8552 167.883 40.7688C166.963 39.6336 165.708 39.0653 164.115 39.0653C162.399 39.0653 161.078 39.607 160.156 40.6919C159.236 41.8271 158.777 43.9628 158.777 45.912C158.777 48.1838 159.208 50.4291 160.067 51.4547C160.986 52.5914 162.271 53.1597 163.93 53.1597C165.646 53.1597 166.963 52.5914 167.883 51.4547C168.809 50.3195 169.265 48.0758 169.265 45.912Z" fill="white"/>
<path d="M199.237 35.2796V47.9398C199.237 51.7835 198.105 54.2981 195.834 55.491C193.565 56.681 191.08 57.2759 188.381 57.2759C185.742 57.1679 183.339 56.5182 181.159 55.3252C178.982 54.1382 177.895 51.6725 177.895 47.9384V35.2781H181.633C181.633 35.2781 184.335 35.4631 184.335 38.5401V49.6685C184.335 50.9665 184.766 51.9137 185.623 52.5087C186.484 53.1037 187.462 53.4027 188.567 53.4027C189.67 53.4027 190.67 53.1037 191.556 52.5087C192.447 51.9137 192.89 50.9665 192.89 49.6685V38.0339C192.89 37.2761 193.182 36.6279 193.764 36.0877C194.344 35.5445 195.096 35.2781 196.018 35.2781L199.237 35.2796Z" fill="white"/>
<path d="M211.845 57.21C209.819 57.3181 207.626 57.2929 205.268 57.1301C202.907 56.9673 201.726 55.6427 201.726 53.1547V29.2905H205.04C205.834 29.2905 206.537 29.5599 207.153 30.1031C207.765 30.6418 208.074 31.293 208.074 32.0493V35.7021H211.847V36.8387C211.847 37.6498 211.54 38.3143 210.926 38.8235C210.31 39.3385 209.578 39.599 208.716 39.599H208.074V52.206C208.074 53.1281 208.686 53.5869 209.916 53.5869H211.848L211.845 57.21Z" fill="white"/>
<path d="M228.227 51.3421H233.226C232.426 53.1729 231.602 54.2178 229.704 55.4063C227.799 56.654 225.41 57.2756 222.529 57.2756C219.032 57.2756 216.302 56.2736 214.343 54.2696C212.376 52.3219 211.397 49.535 211.397 45.9103C211.397 42.4456 212.349 39.7415 214.248 37.7908C216.209 35.7898 218.941 34.8307 222.437 34.7878C228.021 34.7197 231.226 37.7316 232.117 41.3059C233.661 47.5177 226.154 47.5443 226.154 47.5443L217.93 47.5325C217.99 49.2093 218.733 52.5246 222.416 53.1714C226.152 53.8286 228.227 51.3421 228.227 51.3421ZM217.928 43.8812L224.551 43.8827C228.467 43.9241 227.754 39.5624 222.62 39.4988C221.27 39.481 220.165 39.8777 219.308 40.634C218.447 41.3918 217.988 42.4752 217.928 43.8812Z" fill="white"/>
<path d="M87.1907 28.7875H90.4545L102.189 57.2768H95.1509L92.6147 51.0473C92.6147 51.0473 90.0892 54.5092 86.6593 54.5092C83.2265 54.5092 80.8504 51.0473 80.8504 51.0473L78.3504 57.2768H71.3081L80.6481 34.0609C81.584 31.5744 83.9828 28.7875 87.1907 28.7875ZM86.7001 36.1374L82.0248 47.9644C82.0248 47.9644 83.8545 49.5495 86.6956 49.5495C89.5397 49.5495 91.3678 47.9851 91.3678 47.9851L86.7001 36.1374Z" fill="white"/>
<path d="M52.0074 52.438C46.7404 52.438 41.3843 46.7931 38.6217 43.3653L40.2672 57.2762H62.6924L64.9644 43.5207C62.0161 46.8316 56.3838 52.438 52.0074 52.438Z" fill="white"/>
<path d="M66.8156 41.2083L60.9598 35.9749C60.9719 35.9734 60.9825 35.969 60.993 35.966L51.8146 27.6127V27.5771L51.795 27.5949L51.7738 27.5771V27.6127L42.5939 35.966C42.606 35.9675 42.6165 35.9719 42.6241 35.9734L36.7683 41.2083L37.4808 41.568C39.7287 42.5448 43.794 45.0757 51.7723 45.0772C59.7476 45.0772 63.8567 42.5448 66.103 41.568L66.8156 41.2083Z" fill="white"/>
</svg>
