<svg width="75" height="16" viewBox="0 0 75 16" fill="none" xmlns="http://www.w3.org/2000/svg">
<path d="M31.602 11.6607H25.2505L33.3592 1.64539C33.5359 1.42547 33.4868 1.10477 33.2512 0.939829C33.1628 0.875687 33.045 0.839035 32.9272 0.839035H21.1961C20.1653 0.839035 19.3211 1.62706 19.3211 2.58919C19.3211 3.55131 20.1653 4.33934 21.1961 4.33934H26.4677L18.3296 14.3638C18.143 14.5837 18.1921 14.8952 18.4277 15.0693C18.5259 15.1426 18.6437 15.1793 18.7615 15.1701H31.5922C32.6229 15.1243 33.4181 14.2996 33.369 13.3283C33.3199 12.4304 32.5542 11.7156 31.5922 11.6698V11.6607H31.602ZM72.5972 0.839035C71.5665 0.839035 70.7222 1.62706 70.7222 2.58919V8.46274L60.5912 0.958155C60.3654 0.784056 60.0218 0.811546 59.8353 1.03146C59.7568 1.12309 59.7175 1.23305 59.7175 1.35217V13.42C59.7175 14.3821 60.5617 15.1701 61.5925 15.1701C62.6233 15.1701 63.4675 14.3913 63.4675 13.42V7.54643L73.5985 15.0602C73.8342 15.2343 74.1777 15.1976 74.3643 14.9777C74.4428 14.8861 74.4821 14.7761 74.4821 14.6662V2.58919C74.4723 1.6179 73.6378 0.839035 72.5972 0.839035ZM45.7873 11.9905C41.4974 11.9905 38.2971 9.88302 38.2971 7.99542C38.2971 6.10782 41.5072 4.0003 45.7873 4.0003C50.0773 4.0003 53.2776 6.10782 53.2776 7.99542C53.2776 9.88302 50.0871 11.9905 45.7873 11.9905ZM45.7873 0.5C39.5831 0.5 34.547 3.8537 34.547 7.99542C34.547 12.1371 39.5831 15.4908 45.7873 15.4908C51.9916 15.4908 57.0277 12.1371 57.0277 7.99542C57.0277 3.8537 51.9916 0.5 45.7873 0.5ZM8.88572 11.9997C6.51986 11.9997 4.59575 10.2129 4.59575 8.00458C4.59575 5.79627 6.51004 4.0003 8.87591 4.0003C11.2418 4.0003 13.1659 5.78711 13.1659 7.99542V8.00458C13.1659 10.2037 11.2516 11.9905 8.88572 11.9997ZM8.88572 0.5C4.44849 0.5 0.85552 3.8537 0.845703 7.99542C0.845703 12.1371 4.43868 15.4908 8.87591 15.5C13.3131 15.5 16.9061 12.1463 16.9159 8.00458V7.99542C16.9061 3.8537 13.3131 0.5 8.88572 0.5Z" fill="#005BFF"/>
</svg>
