<svg width="100" height="16" viewBox="0 0 100 16" fill="none" xmlns="http://www.w3.org/2000/svg">
<path d="M92.7195 8.15817C92.7195 7.54808 93.5613 7.05595 94.6643 7.05595C95.8148 7.05595 96.9891 7.59554 97.7834 8.47496L99.2188 6.73961C97.8547 5.54293 96.4669 4.92155 94.7356 4.92155C92.5768 4.92155 90.3476 5.90672 90.3476 8.15817C90.3476 10.9262 92.7666 11.1255 94.7356 11.2899C95.8386 11.3713 96.8112 11.454 96.8112 12.1694C96.8112 12.9431 95.6963 13.2946 94.7118 13.2946C93.5732 13.2946 92.3399 12.8143 91.4386 11.7468L89.9086 13.3539C91.13 14.8316 92.8974 15.4765 94.6286 15.4765C96.7993 15.4765 99.1831 14.4561 99.1831 12.1224C99.1831 9.48319 96.7399 9.2256 94.8659 9.03805C93.6916 8.92055 92.7195 8.81526 92.7195 8.15817ZM81.8084 8.81526C82.1998 7.84183 83.0417 7.27874 84.2868 7.27874C85.5439 7.27874 86.2911 7.87663 86.6116 8.81526H81.8084ZM84.4057 4.92155C81.4407 4.92155 79.0565 7.20824 79.0565 10.2108C79.0565 13.0371 81.1678 15.4765 84.2749 15.4765C86.1489 15.4765 87.667 14.5849 88.7462 13.0606L87.1096 11.6885C86.5284 12.568 85.4849 13.0841 84.2393 13.0841C82.9703 13.0841 81.6538 12.1459 81.5473 10.7617H89.2917V9.94098C89.268 7.0442 87.2756 4.92155 84.4057 4.92155ZM54.0677 4.92155C51.1027 4.92155 48.7189 7.20824 48.7189 10.2108C48.7189 13.0371 50.8302 15.4765 53.9374 15.4765C55.8113 15.4765 57.3295 14.5849 58.4086 13.0606L56.772 11.6885C56.1908 12.568 55.1473 13.0841 53.9017 13.0841C52.6328 13.0841 51.3163 12.1459 51.2097 10.7617H58.9542V9.94098C58.9423 7.0442 56.938 4.92155 54.0677 4.92155ZM75.4751 15.1127H77.847V5.28489H75.4751V15.1132V15.1127ZM76.6608 0.5C75.7006 0.5 74.882 1.29763 74.882 2.29411C74.882 3.27928 75.6768 4.00687 76.7084 4.00687C77.7167 4.00687 78.452 3.30324 78.452 2.32981C78.4401 1.33288 77.6335 0.5 76.6608 0.5ZM42.2791 4.9098C41.1643 4.9098 40.1564 5.23834 39.3022 5.81273V0.617498H36.9303V10.2108C36.9303 13.1306 39.3379 15.4765 42.2672 15.4765C45.2203 15.4765 47.6398 13.1428 47.6398 10.1873C47.6279 7.24349 45.256 4.9098 42.2791 4.9098ZM29.945 5.07384C27.3001 5.34364 25.1413 7.59554 25.1413 10.2813C25.1413 13.1193 27.5969 15.5 30.4667 15.5C33.3247 15.5 35.7917 13.1193 35.7917 10.2813C35.7917 9.0733 35.3527 7.95888 34.6412 7.07945L29.3757 0.629248H26.3037L29.945 5.07384ZM11.562 10.8792L9.39131 5.28489H7.73186L5.54927 10.8792L3.36715 5.28489H0.78125L4.59997 15.1367H6.26034L8.54947 9.2726L10.8624 15.1362H12.5223L16.3296 5.28489H13.756L11.562 10.8792ZM62.5712 7.52504V5.28489H60.1993V15.1132H62.5712V10.9619C62.5712 8.9445 64.7538 7.71303 66.924 7.71303V5.28534H66.6867C64.8485 5.28534 63.5201 5.94243 62.5712 7.52549V7.52504ZM70.1026 7.52504V5.28489H67.7307V15.1132H70.1026V10.9619C70.1026 8.9445 72.2847 7.71303 74.4549 7.71303V5.28534H74.2181C72.3912 5.28534 71.0633 5.94243 70.1026 7.52549V7.52504ZM21.548 15.1127H23.9195V0.629248H21.5476V15.1132L21.548 15.1127ZM30.4786 13.1306C28.8416 13.1306 27.5136 11.8291 27.5136 10.2108C27.5136 8.58071 28.8416 7.27874 30.4667 7.27874C32.1152 7.27874 33.4555 8.58026 33.4555 10.2108C33.4555 11.8291 32.1152 13.1306 30.4786 13.1306ZM42.2672 13.1306C41.8775 13.1314 41.4915 13.0561 41.1313 12.909C40.7712 12.7619 40.4439 12.546 40.1684 12.2736C39.8929 12.0012 39.6746 11.6777 39.5259 11.3217C39.3773 10.9657 39.3013 10.5842 39.3022 10.199C39.3022 8.59246 40.5712 7.27874 42.2791 7.27874C43.987 7.27874 45.256 8.59246 45.256 10.1873C45.256 11.8526 43.9038 13.1306 42.2672 13.1306ZM17.4325 15.1127H19.8044V5.28489H17.4325V15.1132V15.1127ZM18.5949 0.5C17.6342 0.5 16.8275 1.29763 16.8275 2.30631C16.8275 3.32674 17.6699 4.01862 18.5949 4.01862C19.6265 4.01862 20.4094 3.17399 20.4094 2.25931C20.3975 1.33288 19.579 0.5 18.5949 0.5ZM51.4704 8.81526C51.8737 7.84183 52.7041 7.27874 53.9374 7.27874C55.2063 7.27874 55.9773 7.87663 56.2974 8.81526H51.4704Z" fill="#C800A1"/>
</svg>
