<svg width="105" height="16" viewBox="0 0 105 16" fill="none" xmlns="http://www.w3.org/2000/svg">
<g clip-path="url(#clip0_264_8071)">
<mask id="mask0_264_8071" style="mask-type:luminance" maskUnits="userSpaceOnUse" x="0" y="0" width="16" height="16">
<path d="M0.626953 0.5H15.8359V15.5H0.626953V0.5Z" fill="white"/>
</mask>
<g mask="url(#mask0_264_8071)">
<path d="M8.23144 15.5C12.4313 15.5 15.8359 12.1421 15.8359 8C15.8359 3.85786 12.4313 0.5 8.23144 0.5C4.0316 0.5 0.626953 3.85786 0.626953 8C0.626953 12.1421 4.0316 15.5 8.23144 15.5Z" fill="#FF5226"/>
<path d="M9.46387 12.7248V4.6948H8.50875C7.82029 4.6948 7.29811 4.83879 6.94324 5.1273C6.58836 5.40529 6.41092 5.77579 6.41092 6.2393C6.41092 6.58929 6.47328 6.8878 6.5985 7.1348C6.72372 7.3818 6.90674 7.60829 7.14653 7.81429C7.38683 8.02029 7.68949 8.24679 8.05501 8.49379L8.96299 9.09579L6.30142 12.7253H4.29688L6.83373 9.3278L8.02358 10.3778L7.08417 9.7908C6.6118 9.48818 6.16183 9.15284 5.73767 8.7873C5.3615 8.4573 5.07456 8.09729 4.87634 7.7063C4.67811 7.3148 4.57875 6.85679 4.57875 6.33179C4.57875 5.42579 4.90777 4.69479 5.5653 4.13879C6.23348 3.57279 7.20939 3.28979 8.49303 3.28979H11.327V12.7248H9.46387Z" fill="white"/>
</g>
<path d="M24.7353 15.5C20.5402 15.5 17.1309 12.1505 17.1309 8.0135C17.1309 3.876 20.5402 0.5 24.7353 0.5C28.93 0.5 32.3398 3.876 32.3398 8.0135C32.3398 12.1505 28.93 15.5 24.7353 15.5Z" fill="#FF5226"/>
<path d="M23.5578 1.51562L15.0742 14.5706H18.9632L23.864 7.04563L23.7443 6.99213L22.3857 12.3771L25.2622 12.8771L28.2188 9.21213L28.0586 9.13363L27.0599 13.2966L33.3275 12.1186L32.049 10.0416L29.7899 10.5516L30.0566 10.8541L31.1085 6.50663L28.6579 4.89063L25.4488 8.87063L25.6085 8.94963L26.9266 3.73463L23.5578 1.51562Z" fill="#FFDD00"/>
<path d="M23.5578 1.51562L15.0742 14.5706H18.9632L23.864 7.04563L23.7444 6.99213L22.3857 12.3771L25.2622 12.8771L28.2188 9.21213L28.0586 9.13363L27.0599 13.2966L29.5795 12.8231L31.1085 6.50663L28.6579 4.89063L25.4488 8.87063L25.6085 8.94963L26.9266 3.73463L23.5578 1.51562Z" fill="#FFDD00"/>
<path d="M35.2544 12.7246L39.9829 3.28956H43.5839L44.32 9.03406L47.9681 3.28906H51.5382V12.7246H48.0467V7.65956L44.8051 12.7246H41.3137L40.6409 7.61306L38.0726 12.7246H35.2544ZM62.2635 10.8561C62.2635 11.1756 62.2691 11.4896 62.2792 11.7981C62.2899 12.1071 62.3107 12.4106 62.3421 12.7091H59.1006C59.0236 12.5608 58.9608 12.4058 58.913 12.2461C58.8491 12.0346 58.8072 11.8173 58.7878 11.5976C58.4537 11.9886 58.0309 12.3126 57.5193 12.5701C57.0185 12.8176 56.3031 12.9411 55.3744 12.9411C54.435 12.9411 53.6831 12.7246 53.1194 12.2926C52.5663 11.8601 52.29 11.2836 52.29 10.5626C52.29 9.89356 52.4826 9.37906 52.8689 9.01856C53.2659 8.64806 53.8814 8.39056 54.7168 8.24656C55.5518 8.09156 56.6215 8.01456 57.9264 8.01456H58.7406V7.84456C58.7406 7.51556 58.5997 7.26306 58.3178 7.08806C58.0359 6.91306 57.5087 6.82556 56.7366 6.82556C55.9746 6.82556 55.2649 6.92356 54.6068 7.11906C53.9599 7.30406 53.4327 7.48956 53.0256 7.67506V5.60556C53.4849 5.44056 54.1009 5.27606 54.8735 5.11156C55.6562 4.93656 56.5485 4.84906 57.5508 4.84906C58.5632 4.84906 59.4189 4.94156 60.1186 5.12706C60.8182 5.30206 61.3505 5.60556 61.7155 6.03806C62.081 6.46006 62.2635 7.04706 62.2635 7.79856V10.8561ZM63.3282 5.08106H66.5697L66.7573 6.39306C67.1542 5.87856 67.6288 5.50306 68.1824 5.26606C68.7355 5.02906 69.3722 4.91106 70.0926 4.91106C70.9068 4.91106 71.6373 5.05506 72.2847 5.34306C72.9178 5.61948 73.4522 6.07687 73.8188 6.65606C74.195 7.24256 74.3826 7.98406 74.3826 8.87956C74.3826 9.77506 74.195 10.5216 73.8188 11.1186C73.4538 11.7056 72.9423 12.1486 72.2847 12.4466C71.6267 12.7456 70.8754 12.8946 70.0297 12.8946C69.4244 12.8984 68.8239 12.7882 68.2604 12.5701C67.7175 12.3441 67.248 11.9886 66.8516 11.5051V14.7171H63.3282V5.08056V5.08106ZM84.5913 8.87956C84.5913 8.11756 84.8002 7.43806 85.2179 6.84106C85.6458 6.24406 86.2511 5.77606 87.0339 5.43606C87.8273 5.08606 88.7616 4.91106 89.8369 4.91106C90.9538 4.91106 91.8881 5.10106 92.6394 5.48206C93.4014 5.86306 93.9337 6.40356 94.2364 7.10356C94.5497 7.80356 94.5912 8.63256 94.3616 9.59006H88.1771C88.3023 10.0326 88.5791 10.3671 89.007 10.5936C89.4455 10.8101 90.0924 10.9181 90.9482 10.9181C91.5434 10.9181 92.0965 10.8666 92.608 10.7631C93.0893 10.6582 93.5649 10.5295 94.0331 10.3776V12.2151C93.5839 12.4211 93.083 12.5856 92.5299 12.7091C91.9869 12.8326 91.2721 12.8946 90.3849 12.8946C88.4326 12.8946 86.9766 12.5396 86.0164 11.8291C85.0664 11.1086 84.5913 10.1256 84.5913 8.87956ZM94.6592 5.08056H103.6V7.05756H100.813V12.7091H97.2898V7.05756H94.6592V5.08056ZM75.0558 5.08056H78.5787V8.53956L81.914 5.08056H84.9518L81.8512 8.26156L85.5936 12.7091H81.3346L78.5787 9.34256V12.7091H75.0558V5.08056ZM89.8526 6.64056C89.372 6.64056 88.9913 6.77956 88.7094 7.05756C88.4275 7.32506 88.245 7.67006 88.1614 8.09206H91.2615C91.2513 7.67006 91.1363 7.32506 90.9173 7.05706C90.6977 6.77956 90.3429 6.64056 89.8526 6.64056ZM70.7816 8.87956C70.7816 8.26156 70.6092 7.77256 70.2645 7.41256C69.9309 7.04206 69.4503 6.85656 68.8242 6.85656C68.2503 6.85656 67.7697 7.03156 67.3839 7.38156C66.9976 7.72156 66.8044 8.22056 66.8044 8.87956C66.8044 9.53856 66.992 10.0481 67.3682 10.4086C67.7545 10.7586 68.2397 10.9336 68.8242 10.9336C69.4716 10.9336 69.9567 10.7481 70.2802 10.3776C70.6143 10.0071 70.7816 9.50756 70.7816 8.87956ZM58.7406 9.41956H57.9422C57.1802 9.41956 56.6322 9.48206 56.2981 9.60556C55.9746 9.72906 55.8129 9.96556 55.8129 10.3156C55.8129 10.6141 55.9173 10.8356 56.1257 10.9796C56.3452 11.1136 56.6058 11.1806 56.909 11.1806C57.3683 11.1806 57.7439 11.0981 58.0359 10.9336C58.3386 10.7586 58.5738 10.5576 58.7406 10.3311V9.41956Z" fill="black"/>
</g>
<defs>
<clipPath id="clip0_264_8071">
<rect width="103.421" height="15" fill="white" transform="translate(0.626953 0.5)"/>
</clipPath>
</defs>
</svg>
